<?xml version="1.0" encoding="utf-8" standalone="no"?>
<!DOCTYPE svg PUBLIC "-//W3C//DTD SVG 1.1//EN"
  "http://www.w3.org/Graphics/SVG/1.1/DTD/svg11.dtd">
<!-- Created with matplotlib (http://matplotlib.org/) -->
<svg height="432pt" version="1.1" viewBox="0 0 576 432" width="576pt" xmlns="http://www.w3.org/2000/svg" xmlns:xlink="http://www.w3.org/1999/xlink">
 <defs>
  <style type="text/css">
*{stroke-linecap:butt;stroke-linejoin:round;}
  </style>
 </defs>
 <g id="figure_1">
  <g id="patch_1">
   <path d="M 0 432 
L 576 432 
L 576 0 
L 0 0 
z
" style="fill:#ffffff;"/>
  </g>
  <g id="axes_1">
   <g id="patch_2">
    <path d="M 72 384.48 
L 518.4 384.48 
L 518.4 51.84 
L 72 51.84 
z
" style="fill:#ffffff;"/>
   </g>
   <g id="matplotlib.axis_1">
    <g id="xtick_1">
     <g id="line2d_1">
      <defs>
       <path d="M 0 0 
L 0 3.5 
" id="m808b15eaac" style="stroke:#000000;stroke-width:0.8;"/>
      </defs>
      <g>
       <use style="stroke:#000000;stroke-width:0.8;" x="72" xlink:href="#m808b15eaac" y="384.48"/>
      </g>
     </g>
     <g id="text_1">
      <!-- $0$ -->
      <defs>
       <path d="M 42 31.640625 
C 42 37.75 41.90625 48.125 37.703125 56.109375 
C 34 63.109375 28.09375 65.59375 22.90625 65.59375 
C 18.09375 65.59375 12 63.40625 8.203125 56.203125 
C 4.203125 48.71875 3.796875 39.4375 3.796875 31.640625 
C 3.796875 25.953125 3.90625 17.28125 7 9.671875 
C 11.296875 -0.609375 19 -2 22.90625 -2 
C 27.5 -2 34.5 -0.109375 38.59375 9.375 
C 41.59375 16.28125 42 24.359375 42 31.640625 
z
M 22.90625 -0.40625 
C 16.5 -0.40625 12.703125 5.078125 11.296875 12.6875 
C 10.203125 18.5625 10.203125 27.15625 10.203125 32.75 
C 10.203125 40.4375 10.203125 46.828125 11.5 52.921875 
C 13.40625 61.390625 19 64 22.90625 64 
C 27 64 32.296875 61.296875 34.203125 53.125 
C 35.5 47.4375 35.59375 40.734375 35.59375 32.75 
C 35.59375 26.25 35.59375 18.265625 34.40625 12.375 
C 32.296875 1.484375 26.40625 -0.40625 22.90625 -0.40625 
z
" id="CMR17-48"/>
      </defs>
      <g transform="translate(69.073505 399.78218)scale(0.12 -0.12)">
       <use transform="scale(0.996264)" xlink:href="#CMR17-48"/>
      </g>
     </g>
    </g>
    <g id="xtick_2">
     <g id="line2d_2">
      <g>
       <use style="stroke:#000000;stroke-width:0.8;" x="183.6" xlink:href="#m808b15eaac" y="384.48"/>
      </g>
     </g>
     <g id="text_2">
      <!-- $50$ -->
      <defs>
       <path d="M 11.40625 57.6875 
C 12.40625 57.28125 16.5 56 20.703125 56 
C 30 56 35.09375 61.109375 38 64.0625 
C 38 64.953125 38 65.5 37.40625 65.5 
C 37.296875 65.5 37.09375 65.5 36.296875 65.046875 
C 32.796875 63.40625 28.703125 62.078125 23.703125 62.078125 
C 20.703125 62.078125 16.203125 62.484375 11.296875 64.671875 
C 10.203125 65.171875 10 65.171875 9.90625 65.171875 
C 9.40625 65.171875 9.296875 65.0625 9.296875 63.078125 
L 9.296875 34.421875 
C 9.296875 32.640625 9.296875 32.140625 10.296875 32.140625 
C 10.796875 32.140625 11 32.34375 11.5 33.03125 
C 14.703125 37.515625 19.09375 39.40625 24.09375 39.40625 
C 27.59375 39.40625 35.09375 37.21875 35.09375 20.140625 
C 35.09375 16.953125 35.09375 11.171875 32.09375 6.578125 
C 29.59375 2.484375 25.703125 0.390625 21.40625 0.390625 
C 14.796875 0.390625 8.09375 5 6.296875 12.71875 
C 6.703125 12.609375 7.5 12.421875 7.90625 12.421875 
C 9.203125 12.421875 11.703125 13.125 11.703125 16.21875 
C 11.703125 18.90625 9.796875 20 7.90625 20 
C 5.59375 20 4.09375 18.59375 4.09375 15.796875 
C 4.09375 7.09375 11 -2 21.59375 -2 
C 31.90625 -2 41.703125 6.875 41.703125 19.75 
C 41.703125 31.71875 33.90625 41 24.203125 41 
C 19.09375 41 14.796875 39.109375 11.40625 35.53125 
z
" id="CMR17-53"/>
      </defs>
      <g transform="translate(177.74701 399.78218)scale(0.12 -0.12)">
       <use transform="scale(0.996264)" xlink:href="#CMR17-53"/>
       <use transform="translate(45.690477 0)scale(0.996264)" xlink:href="#CMR17-48"/>
      </g>
     </g>
    </g>
    <g id="xtick_3">
     <g id="line2d_3">
      <g>
       <use style="stroke:#000000;stroke-width:0.8;" x="295.2" xlink:href="#m808b15eaac" y="384.48"/>
      </g>
     </g>
     <g id="text_3">
      <!-- $100$ -->
      <defs>
       <path d="M 26.59375 63.40625 
C 26.59375 65.5 26.5 65.5 25.09375 65.5 
C 21.203125 61.1875 15.296875 59.796875 9.703125 59.796875 
C 9.40625 59.796875 8.90625 59.796875 8.796875 59.5 
C 8.703125 59.296875 8.703125 59.09375 8.703125 57 
C 11.796875 57 17 57.59375 21 59.984375 
L 21 7.203125 
C 21 3.6875 20.796875 2.5 12.203125 2.5 
L 9.203125 2.5 
L 9.203125 0 
C 14 0 19 0 23.796875 0 
C 28.59375 0 33.59375 0 38.40625 0 
L 38.40625 2.5 
L 35.40625 2.5 
C 26.796875 2.5 26.59375 3.59375 26.59375 7.15625 
z
" id="CMR17-49"/>
      </defs>
      <g transform="translate(286.420515 399.78218)scale(0.12 -0.12)">
       <use transform="scale(0.996264)" xlink:href="#CMR17-49"/>
       <use transform="translate(45.690477 0)scale(0.996264)" xlink:href="#CMR17-48"/>
       <use transform="translate(91.380954 0)scale(0.996264)" xlink:href="#CMR17-48"/>
      </g>
     </g>
    </g>
    <g id="xtick_4">
     <g id="line2d_4">
      <g>
       <use style="stroke:#000000;stroke-width:0.8;" x="406.8" xlink:href="#m808b15eaac" y="384.48"/>
      </g>
     </g>
     <g id="text_4">
      <!-- $150$ -->
      <g transform="translate(398.020515 399.78218)scale(0.12 -0.12)">
       <use transform="scale(0.996264)" xlink:href="#CMR17-49"/>
       <use transform="translate(45.690477 0)scale(0.996264)" xlink:href="#CMR17-53"/>
       <use transform="translate(91.380954 0)scale(0.996264)" xlink:href="#CMR17-48"/>
      </g>
     </g>
    </g>
    <g id="xtick_5">
     <g id="line2d_5">
      <g>
       <use style="stroke:#000000;stroke-width:0.8;" x="518.4" xlink:href="#m808b15eaac" y="384.48"/>
      </g>
     </g>
     <g id="text_5">
      <!-- $200$ -->
      <defs>
       <path d="M 41.703125 15.453125 
L 39.90625 15.453125 
C 38.90625 8.375 38.09375 7.171875 37.703125 6.5625 
C 37.203125 5.765625 30 5.765625 28.59375 5.765625 
L 9.40625 5.765625 
C 13 9.671875 20 16.75 28.5 24.953125 
C 34.59375 30.734375 41.703125 37.53125 41.703125 47.421875 
C 41.703125 59.21875 32.296875 66 21.796875 66 
C 10.796875 66 4.09375 56.3125 4.09375 47.34375 
C 4.09375 43.4375 7 42.9375 8.203125 42.9375 
C 9.203125 42.9375 12.203125 43.546875 12.203125 47.03125 
C 12.203125 50.109375 9.59375 51 8.203125 51 
C 7.59375 51 7 50.90625 6.59375 50.703125 
C 8.5 59.21875 14.296875 63.40625 20.40625 63.40625 
C 29.09375 63.40625 34.796875 56.515625 34.796875 47.421875 
C 34.796875 38.734375 29.703125 31.25 24 24.75 
L 4.09375 2.28125 
L 4.09375 0 
L 39.296875 0 
z
" id="CMR17-50"/>
      </defs>
      <g transform="translate(509.620515 399.78218)scale(0.12 -0.12)">
       <use transform="scale(0.996264)" xlink:href="#CMR17-50"/>
       <use transform="translate(45.690477 0)scale(0.996264)" xlink:href="#CMR17-48"/>
       <use transform="translate(91.380954 0)scale(0.996264)" xlink:href="#CMR17-48"/>
      </g>
     </g>
    </g>
    <g id="text_6">
     <!-- time -->
     <defs>
      <path d="M 16.703125 37 
L 29.703125 37 
L 29.703125 42.765625 
L 16.703125 42.765625 
L 16.703125 55 
L 9.59375 55 
L 9.59375 42.765625 
L 1.703125 42.765625 
L 1.703125 37 
L 9.40625 37 
L 9.40625 11.703125 
C 9.40625 6 10.703125 -1 17.296875 -1 
C 22.296875 -1 26.90625 0.390625 31.296875 2.6875 
L 29.703125 8.5625 
C 27.296875 6.46875 24.40625 5.265625 21.296875 5.265625 
C 16.90625 5.265625 16.703125 10.875 16.703125 13.375 
z
" id="CMSS17-116"/>
      <path d="M 15.296875 65.359375 
L 6.90625 65.359375 
L 6.90625 57 
L 15.296875 57 
z
M 14.796875 42.796875 
L 7.40625 42.796875 
L 7.40625 0 
L 14.796875 0 
z
" id="CMSS17-105"/>
      <path d="M 67 29.328125 
C 67 36.0625 65.296875 44 54.09375 44 
C 46.59375 44 42.09375 39.3125 40.09375 36.421875 
C 38.296875 41.71875 34.09375 44 28.09375 44 
C 21.296875 44 17 40.125 14.703125 37.328125 
L 14.703125 43.09375 
L 7.40625 43.09375 
L 7.40625 0 
L 15 0 
L 15 24.359375 
C 15 30.296875 17.203125 37.9375 24.296875 37.9375 
C 33.40625 37.9375 33.40625 31.5 33.40625 28.578125 
L 33.40625 0 
L 41 0 
L 41 24.359375 
C 41 30.296875 43.203125 37.9375 50.296875 37.9375 
C 59.40625 37.9375 59.40625 31.5 59.40625 28.578125 
L 59.40625 0 
L 67 0 
z
" id="CMSS17-109"/>
      <path d="M 39.09375 21.515625 
C 39.09375 24.84375 38.90625 31.296875 35.703125 36.640625 
C 32.203125 42.390625 26.5 44 22.203125 44 
C 11.796875 44 3 34.1875 3 21.484375 
C 3 9.09375 12.09375 -1 23.59375 -1 
C 28.09375 -1 33.59375 0.296875 38.59375 3.875 
C 38.59375 4.28125 38.40625 6.46875 38.296875 6.5625 
C 38.296875 6.765625 38 9.84375 38 10.25 
C 33.203125 6.359375 27.703125 5.078125 23.703125 5.078125 
C 17.296875 5.078125 10.40625 10.421875 10.09375 21.515625 
z
M 10.90625 27 
C 12.203125 32.5625 16.59375 37.828125 22.203125 37.828125 
C 23.703125 37.828125 30.703125 37.828125 32.5 27 
z
" id="CMSS17-101"/>
     </defs>
     <g transform="translate(280.906539 417.176364)scale(0.16 -0.16)">
      <use transform="scale(0.996264)" xlink:href="#CMSS17-116"/>
      <use transform="translate(33.831567 0)scale(0.996264)" xlink:href="#CMSS17-105"/>
      <use transform="translate(56.01229 0)scale(0.996264)" xlink:href="#CMSS17-109"/>
      <use transform="translate(130.241544 0)scale(0.996264)" xlink:href="#CMSS17-101"/>
     </g>
    </g>
   </g>
   <g id="matplotlib.axis_2">
    <g id="ytick_1">
     <g id="line2d_6">
      <defs>
       <path d="M 0 0 
L -3.5 0 
" id="m8d67d44bf0" style="stroke:#000000;stroke-width:0.8;"/>
      </defs>
      <g>
       <use style="stroke:#000000;stroke-width:0.8;" x="72" xlink:href="#m8d67d44bf0" y="383.042793"/>
      </g>
     </g>
     <g id="text_7">
      <!-- $-0.00005$ -->
      <defs>
       <path d="M 65.90625 23 
C 67.59375 23 69.40625 23 69.40625 25 
C 69.40625 27 67.59375 27 65.90625 27 
L 11.796875 27 
C 10.09375 27 8.296875 27 8.296875 25 
C 8.296875 23 10.09375 23 11.796875 23 
z
" id="CMSY10-0"/>
       <path d="M 18.40625 4.796875 
C 18.40625 7.6875 16 9.671875 13.59375 9.671875 
C 10.703125 9.671875 8.703125 7.28125 8.703125 4.890625 
C 8.703125 2 11.09375 0 13.5 0 
C 16.40625 0 18.40625 2.390625 18.40625 4.796875 
z
" id="CMMI12-58"/>
      </defs>
      <g transform="translate(17.331908 387.193883)scale(0.12 -0.12)">
       <use transform="scale(0.996264)" xlink:href="#CMSY10-0"/>
       <use transform="translate(77.487468 0)scale(0.996264)" xlink:href="#CMR17-48"/>
       <use transform="translate(123.177945 0)scale(0.996264)" xlink:href="#CMMI12-58"/>
       <use transform="translate(150.275122 0)scale(0.996264)" xlink:href="#CMR17-48"/>
       <use transform="translate(195.965599 0)scale(0.996264)" xlink:href="#CMR17-48"/>
       <use transform="translate(241.656076 0)scale(0.996264)" xlink:href="#CMR17-48"/>
       <use transform="translate(287.346553 0)scale(0.996264)" xlink:href="#CMR17-48"/>
       <use transform="translate(333.03703 0)scale(0.996264)" xlink:href="#CMR17-53"/>
      </g>
     </g>
    </g>
    <g id="ytick_2">
     <g id="line2d_7">
      <g>
       <use style="stroke:#000000;stroke-width:0.8;" x="72" xlink:href="#m8d67d44bf0" y="336.96"/>
      </g>
     </g>
     <g id="text_8">
      <!-- $0.00000$ -->
      <g transform="translate(26.630397 341.11109)scale(0.12 -0.12)">
       <use transform="scale(0.996264)" xlink:href="#CMR17-48"/>
       <use transform="translate(45.690477 0)scale(0.996264)" xlink:href="#CMMI12-58"/>
       <use transform="translate(72.787654 0)scale(0.996264)" xlink:href="#CMR17-48"/>
       <use transform="translate(118.478131 0)scale(0.996264)" xlink:href="#CMR17-48"/>
       <use transform="translate(164.168608 0)scale(0.996264)" xlink:href="#CMR17-48"/>
       <use transform="translate(209.859086 0)scale(0.996264)" xlink:href="#CMR17-48"/>
       <use transform="translate(255.549563 0)scale(0.996264)" xlink:href="#CMR17-48"/>
      </g>
     </g>
    </g>
    <g id="ytick_3">
     <g id="line2d_8">
      <g>
       <use style="stroke:#000000;stroke-width:0.8;" x="72" xlink:href="#m8d67d44bf0" y="290.877207"/>
      </g>
     </g>
     <g id="text_9">
      <!-- $0.00005$ -->
      <g transform="translate(26.630397 295.028297)scale(0.12 -0.12)">
       <use transform="scale(0.996264)" xlink:href="#CMR17-48"/>
       <use transform="translate(45.690477 0)scale(0.996264)" xlink:href="#CMMI12-58"/>
       <use transform="translate(72.787654 0)scale(0.996264)" xlink:href="#CMR17-48"/>
       <use transform="translate(118.478131 0)scale(0.996264)" xlink:href="#CMR17-48"/>
       <use transform="translate(164.168608 0)scale(0.996264)" xlink:href="#CMR17-48"/>
       <use transform="translate(209.859086 0)scale(0.996264)" xlink:href="#CMR17-48"/>
       <use transform="translate(255.549563 0)scale(0.996264)" xlink:href="#CMR17-53"/>
      </g>
     </g>
    </g>
    <g id="ytick_4">
     <g id="line2d_9">
      <g>
       <use style="stroke:#000000;stroke-width:0.8;" x="72" xlink:href="#m8d67d44bf0" y="244.794414"/>
      </g>
     </g>
     <g id="text_10">
      <!-- $0.00010$ -->
      <g transform="translate(26.630397 248.945504)scale(0.12 -0.12)">
       <use transform="scale(0.996264)" xlink:href="#CMR17-48"/>
       <use transform="translate(45.690477 0)scale(0.996264)" xlink:href="#CMMI12-58"/>
       <use transform="translate(72.787654 0)scale(0.996264)" xlink:href="#CMR17-48"/>
       <use transform="translate(118.478131 0)scale(0.996264)" xlink:href="#CMR17-48"/>
       <use transform="translate(164.168608 0)scale(0.996264)" xlink:href="#CMR17-48"/>
       <use transform="translate(209.859086 0)scale(0.996264)" xlink:href="#CMR17-49"/>
       <use transform="translate(255.549563 0)scale(0.996264)" xlink:href="#CMR17-48"/>
      </g>
     </g>
    </g>
    <g id="ytick_5">
     <g id="line2d_10">
      <g>
       <use style="stroke:#000000;stroke-width:0.8;" x="72" xlink:href="#m8d67d44bf0" y="198.711621"/>
      </g>
     </g>
     <g id="text_11">
      <!-- $0.00015$ -->
      <g transform="translate(26.630397 202.862711)scale(0.12 -0.12)">
       <use transform="scale(0.996264)" xlink:href="#CMR17-48"/>
       <use transform="translate(45.690477 0)scale(0.996264)" xlink:href="#CMMI12-58"/>
       <use transform="translate(72.787654 0)scale(0.996264)" xlink:href="#CMR17-48"/>
       <use transform="translate(118.478131 0)scale(0.996264)" xlink:href="#CMR17-48"/>
       <use transform="translate(164.168608 0)scale(0.996264)" xlink:href="#CMR17-48"/>
       <use transform="translate(209.859086 0)scale(0.996264)" xlink:href="#CMR17-49"/>
       <use transform="translate(255.549563 0)scale(0.996264)" xlink:href="#CMR17-53"/>
      </g>
     </g>
    </g>
    <g id="ytick_6">
     <g id="line2d_11">
      <g>
       <use style="stroke:#000000;stroke-width:0.8;" x="72" xlink:href="#m8d67d44bf0" y="152.628829"/>
      </g>
     </g>
     <g id="text_12">
      <!-- $0.00020$ -->
      <g transform="translate(26.630397 156.779918)scale(0.12 -0.12)">
       <use transform="scale(0.996264)" xlink:href="#CMR17-48"/>
       <use transform="translate(45.690477 0)scale(0.996264)" xlink:href="#CMMI12-58"/>
       <use transform="translate(72.787654 0)scale(0.996264)" xlink:href="#CMR17-48"/>
       <use transform="translate(118.478131 0)scale(0.996264)" xlink:href="#CMR17-48"/>
       <use transform="translate(164.168608 0)scale(0.996264)" xlink:href="#CMR17-48"/>
       <use transform="translate(209.859086 0)scale(0.996264)" xlink:href="#CMR17-50"/>
       <use transform="translate(255.549563 0)scale(0.996264)" xlink:href="#CMR17-48"/>
      </g>
     </g>
    </g>
    <g id="ytick_7">
     <g id="line2d_12">
      <g>
       <use style="stroke:#000000;stroke-width:0.8;" x="72" xlink:href="#m8d67d44bf0" y="106.546036"/>
      </g>
     </g>
     <g id="text_13">
      <!-- $0.00025$ -->
      <g transform="translate(26.630397 110.697126)scale(0.12 -0.12)">
       <use transform="scale(0.996264)" xlink:href="#CMR17-48"/>
       <use transform="translate(45.690477 0)scale(0.996264)" xlink:href="#CMMI12-58"/>
       <use transform="translate(72.787654 0)scale(0.996264)" xlink:href="#CMR17-48"/>
       <use transform="translate(118.478131 0)scale(0.996264)" xlink:href="#CMR17-48"/>
       <use transform="translate(164.168608 0)scale(0.996264)" xlink:href="#CMR17-48"/>
       <use transform="translate(209.859086 0)scale(0.996264)" xlink:href="#CMR17-50"/>
       <use transform="translate(255.549563 0)scale(0.996264)" xlink:href="#CMR17-53"/>
      </g>
     </g>
    </g>
    <g id="ytick_8">
     <g id="line2d_13">
      <g>
       <use style="stroke:#000000;stroke-width:0.8;" x="72" xlink:href="#m8d67d44bf0" y="60.463243"/>
      </g>
     </g>
     <g id="text_14">
      <!-- $0.00030$ -->
      <defs>
       <path d="M 22.09375 33.703125 
C 31 33.703125 34.90625 25.96875 34.90625 17.03125 
C 34.90625 5 28.5 0.390625 22.703125 0.390625 
C 17.40625 0.390625 8.796875 3.03125 6.09375 10.828125 
C 6.59375 10.625 7.09375 10.625 7.59375 10.625 
C 10 10.625 11.796875 12.21875 11.796875 14.8125 
C 11.796875 17.703125 9.59375 19 7.59375 19 
C 5.90625 19 3.296875 18.203125 3.296875 14.46875 
C 3.296875 5.234375 12.296875 -2 22.90625 -2 
C 34 -2 42.5 6.71875 42.5 16.953125 
C 42.5 26.671875 34.5 33.703125 25 34.796875 
C 32.59375 36.375 39.90625 43.0625 39.90625 52.015625 
C 39.90625 59.6875 32 65.296875 23 65.296875 
C 13.90625 65.296875 5.90625 59.828125 5.90625 52.015625 
C 5.90625 48.59375 8.5 48 9.796875 48 
C 11.90625 48 13.703125 49.296875 13.703125 51.890625 
C 13.703125 54.46875 11.90625 55.765625 9.796875 55.765625 
C 9.40625 55.765625 8.90625 55.765625 8.5 55.578125 
C 11.40625 61.859375 19.296875 63 22.796875 63 
C 26.296875 63 32.90625 61.328125 32.90625 51.875 
C 32.90625 49.109375 32.5 44.1875 29.09375 39.84375 
C 26.09375 36 22.703125 36 19.40625 35.6875 
C 18.90625 35.6875 16.59375 35.453125 16.203125 35.453125 
C 15.5 35.359375 15.09375 35.265625 15.09375 34.5 
C 15.09375 33.796875 15.203125 33.703125 17.203125 33.703125 
z
" id="CMR17-51"/>
      </defs>
      <g transform="translate(26.630397 64.614333)scale(0.12 -0.12)">
       <use transform="scale(0.996264)" xlink:href="#CMR17-48"/>
       <use transform="translate(45.690477 0)scale(0.996264)" xlink:href="#CMMI12-58"/>
       <use transform="translate(72.787654 0)scale(0.996264)" xlink:href="#CMR17-48"/>
       <use transform="translate(118.478131 0)scale(0.996264)" xlink:href="#CMR17-48"/>
       <use transform="translate(164.168608 0)scale(0.996264)" xlink:href="#CMR17-48"/>
       <use transform="translate(209.859086 0)scale(0.996264)" xlink:href="#CMR17-51"/>
       <use transform="translate(255.549563 0)scale(0.996264)" xlink:href="#CMR17-48"/>
      </g>
     </g>
    </g>
    <g id="text_15">
     <!-- Heat and light absorption power -->
     <defs>
      <path d="M 57.40625 69 
L 49 69 
L 49 39.078125 
L 17.203125 39.078125 
L 17.203125 69 
L 8.796875 69 
L 8.796875 0 
L 17.203125 0 
L 17.203125 33 
L 49 33 
L 49 0 
L 57.40625 0 
z
" id="CMSS17-72"/>
      <path d="M 37.59375 27.984375 
C 37.59375 37.375 30.90625 43.875 21.90625 43.875 
C 17.5 43.875 12.703125 43.078125 7.203125 39.890625 
L 7.796875 33.359375 
C 10.296875 35.125 14.59375 38 21.796875 38 
C 26.90625 38 30 34.0625 30 27.84375 
L 30 24 
C 14 24 4 19.34375 4 11.34375 
C 4 7.203125 6.5 -1 14.796875 -1 
C 16.296875 -1 24.40625 -1 30.203125 3.390625 
L 30.203125 -0.296875 
L 37.59375 -0.296875 
z
M 30 12.75 
C 30 10.953125 30 8.5625 27 6.78125 
C 24.40625 5.078125 21.09375 5.078125 19.703125 5.078125 
C 14.703125 5.078125 11.296875 7.984375 11.296875 11.625 
C 11.296875 18.921875 26.90625 18.921875 30 18.921875 
z
" id="CMSS17-97"/>
      <path d="M 40.90625 29.328125 
C 40.90625 35.671875 39.40625 44 28.09375 44 
C 21.703125 44 17.5 40.71875 14.703125 37.328125 
L 14.703125 43.09375 
L 7.40625 43.09375 
L 7.40625 0 
L 15 0 
L 15 24.359375 
C 15 30.6875 17.40625 37.9375 24.203125 37.9375 
C 33 37.9375 33.296875 32 33.296875 28.578125 
L 33.296875 0 
L 40.90625 0 
z
" id="CMSS17-110"/>
      <path d="M 40.796875 69 
L 33.40625 69 
L 33.40625 38.09375 
C 30.296875 40.671875 25.203125 43.0625 19.59375 43.0625 
C 10.5 43.0625 3.296875 33.296875 3.296875 21.046875 
C 3.296875 8.78125 10.40625 -1 19.296875 -1 
C 26.203125 -1 30.796875 2.6875 33.203125 4.78125 
L 33.203125 -0.203125 
L 40.796875 -0.203125 
z
M 33.203125 13.0625 
C 33.203125 11.671875 33.203125 10.203125 30.09375 7.53125 
C 28.09375 5.859375 25.703125 5.078125 23.40625 5.078125 
C 18 5.078125 10.90625 9 10.90625 20.9375 
C 10.90625 33.34375 18.90625 37 24.40625 37 
C 28.09375 37 31.09375 35.21875 33.203125 32.265625 
z
" id="CMSS17-100"/>
      <path d="M 14.796875 69 
L 7.40625 69 
L 7.40625 0 
L 14.796875 0 
z
" id="CMSS17-108"/>
      <path d="M 44.5 43.875 
C 38.796875 43.875 33.90625 42.78125 29.90625 40.890625 
C 26.59375 43.390625 23.203125 43.875 20.90625 43.875 
C 12.203125 43.875 5.59375 36.703125 5.59375 28.34375 
C 5.59375 22.9375 8.59375 18.859375 8.796875 18.671875 
C 7 16.171875 6 13.484375 6 10.5 
C 6 7 7.40625 4.515625 8.5 3.125 
C 3.296875 -0.046875 2.59375 -4.90625 2.59375 -6.796875 
C 2.59375 -14.03125 11.703125 -20 23.40625 -20 
C 35.203125 -20 44.296875 -14.03125 44.296875 -6.6875 
C 44.296875 7 29 7 24.796875 7 
L 16.703125 7 
C 15.203125 7 11.203125 7 11.203125 12.359375 
C 11.203125 14.390625 12.09375 15.6875 12.203125 15.78125 
C 13.703125 14.6875 16.796875 13 20.90625 13 
C 29.203125 13 36.09375 19.96875 36.09375 28.546875 
C 36.09375 33.3125 33.90625 36.796875 33 38 
L 33.296875 38 
C 33.59375 38 37.796875 38 39.296875 38 
C 42.5 38 42.796875 37.953125 45.59375 37.796875 
z
M 20.90625 18.46875 
C 17.5 18.46875 12.703125 20.546875 12.703125 28.484375 
C 12.703125 37.109375 18.203125 38.5 20.796875 38.5 
C 24.203125 38.5 29 36.421875 29 28.484375 
C 29 19.859375 23.5 18.46875 20.90625 18.46875 
z
M 24.703125 -0.15625 
C 27.09375 -0.15625 37.203125 -0.15625 37.203125 -6.90625 
C 37.203125 -11.15625 31 -14.515625 23.5 -14.515625 
C 15.90625 -14.515625 9.703125 -11.25 9.703125 -6.796875 
C 9.703125 -6.296875 9.703125 -0.15625 16.59375 -0.15625 
z
" id="CMSS17-103"/>
      <path d="M 40.90625 29.546875 
C 40.90625 35.8125 39.40625 44.0625 28.09375 44.0625 
C 21.796875 44.0625 17.703125 40.984375 14.796875 37.609375 
L 14.796875 69.5 
L 7.40625 69.5 
L 7.40625 0.5 
L 15 0.5 
L 15 24.578125 
C 15 30.828125 17.40625 38 24.203125 38 
C 33 38 33.296875 32.125 33.296875 28.734375 
L 33.296875 0.5 
L 40.90625 0.5 
z
" id="CMSS17-104"/>
      <path d="M 14.90625 69 
L 7.5 69 
L 7.5 -0.203125 
L 15.09375 -0.203125 
L 15.09375 4.28125 
C 18.90625 0.59375 23.5 -1 27.59375 -1 
C 37.203125 -1 45 8.578125 45 21.125 
C 45 32.59375 39 43.0625 30.09375 43.0625 
C 23.796875 43.0625 18.203125 40.484375 14.90625 37.796875 
z
M 15.09375 31.96875 
C 17.296875 34.71875 20.40625 37 24.796875 37 
C 30.703125 37 37.40625 32.765625 37.40625 21.125 
C 37.40625 8.71875 29.40625 5.078125 23.90625 5.078125 
C 21.90625 5.078125 19.796875 5.5625 17.796875 7.25 
C 15.09375 9.609375 15.09375 11.078125 15.09375 12.453125 
z
" id="CMSS17-98"/>
      <path d="M 32.203125 41.046875 
C 26.296875 43.859375 21.703125 43.859375 18.703125 43.859375 
C 11.59375 43.859375 3.09375 41.375 3.09375 31.296875 
C 3.09375 21.234375 14.09375 19.03125 17.09375 18.421875 
C 21.703125 17.53125 26.796875 16.53125 26.796875 11.5625 
C 26.796875 5.265625 19.59375 5.265625 18.296875 5.265625 
C 14.296875 5.265625 8.796875 6.359375 3.796875 9.96875 
L 2.59375 3.28125 
C 8.296875 0 13.796875 -1 18.40625 -1 
C 30.703125 -1 33.796875 6.5 33.796875 12.203125 
C 33.796875 17.09375 31 20.390625 29.09375 21.890625 
C 25.796875 24.5 24.59375 24.796875 16.40625 26.5 
C 15 26.703125 10.09375 27.796875 10.09375 32.28125 
C 10.09375 38 16.40625 38 17.796875 38 
C 24.296875 38 28.296875 35.984375 31 34.5 
z
" id="CMSS17-115"/>
      <path d="M 44.203125 21.1875 
C 44.203125 34 34.703125 44 23.5 44 
C 12 44 2.703125 33.703125 2.703125 21.1875 
C 2.703125 8.5 12.296875 -1 23.40625 -1 
C 34.796875 -1 44.203125 8.796875 44.203125 21.1875 
z
M 23.5 5.265625 
C 16.40625 5.265625 10.296875 11.078125 10.296875 22 
C 10.296875 33.609375 17.40625 37.921875 23.40625 37.921875 
C 29.90625 37.921875 36.59375 33.21875 36.59375 22 
C 36.59375 10.671875 30.09375 5.265625 23.5 5.265625 
z
" id="CMSS17-111"/>
      <path d="M 14.90625 21.296875 
C 14.90625 30.703125 21.796875 37 30.59375 37 
L 30.59375 43.578125 
C 24.203125 43.578125 18.203125 40.390625 14.59375 35.203125 
L 14.59375 43.09375 
L 7.5 43.09375 
L 7.5 0 
L 14.90625 0 
z
" id="CMSS17-114"/>
      <path d="M 15.09375 5.203125 
C 18.40625 2.015625 22.90625 -0.078125 27.703125 -0.078125 
C 37 -0.078125 45 9.421875 45 22.0625 
C 45 33.734375 39 44 30.40625 44 
C 25.40625 44 19.40625 42.21875 14.90625 38.625 
L 14.90625 43.203125 
L 7.5 43.203125 
L 7.5 -19 
L 15.09375 -19 
z
M 15.09375 32.8125 
C 15.90625 34 19.296875 37.734375 24.796875 37.734375 
C 31.796875 37.734375 37.40625 30.625 37.40625 22.0625 
C 37.40625 12.296875 30.59375 6 23.90625 6 
C 21.90625 6 19.796875 6.484375 17.796875 8.171875 
C 15.09375 10.53125 15.09375 12 15.09375 13.390625 
z
" id="CMSS17-112"/>
      <path d="M 62.703125 43 
L 55.09375 43 
L 49.796875 25.015625 
C 48.703125 21.21875 45.59375 10.703125 45.203125 5.796875 
L 45.09375 5.796875 
C 44.90625 8.8125 43.203125 16 40.40625 25.515625 
L 35.296875 43 
L 28.40625 43 
L 23.40625 25.90625 
C 20.90625 17.203125 19 9.796875 18.796875 5.796875 
L 18.703125 5.796875 
C 18.296875 11.703125 14.203125 25.515625 13.59375 27.703125 
L 9.09375 43 
L 1.296875 43 
L 14.296875 0 
L 21.90625 0 
C 27.09375 17.125 31.09375 30.359375 31.40625 37.03125 
C 31.59375 33.75 33.296875 26.671875 34.296875 23.1875 
L 40.90625 0 
L 49.703125 0 
z
" id="CMSS17-119"/>
     </defs>
     <g transform="translate(10.232432 322.939995)rotate(-90)scale(0.16 -0.16)">
      <use transform="scale(0.996264)" xlink:href="#CMSS17-72"/>
      <use transform="translate(66.061519 0)scale(0.996264)" xlink:href="#CMSS17-101"/>
      <use transform="translate(107.700341 0)scale(0.996264)" xlink:href="#CMSS17-97"/>
      <use transform="translate(152.622262 0)scale(0.996264)" xlink:href="#CMSS17-116"/>
      <use transform="translate(217.682941 0)scale(0.996264)" xlink:href="#CMSS17-97"/>
      <use transform="translate(262.604862 0)scale(0.996264)" xlink:href="#CMSS17-110"/>
      <use transform="translate(310.809805 0)scale(0.996264)" xlink:href="#CMSS17-100"/>
      <use transform="translate(390.243861 0)scale(0.996264)" xlink:href="#CMSS17-108"/>
      <use transform="translate(412.424584 0)scale(0.996264)" xlink:href="#CMSS17-105"/>
      <use transform="translate(434.605307 0)scale(0.996264)" xlink:href="#CMSS17-103"/>
      <use transform="translate(481.448931 0)scale(0.996264)" xlink:href="#CMSS17-104"/>
      <use transform="translate(529.653874 0)scale(0.996264)" xlink:href="#CMSS17-116"/>
      <use transform="translate(594.714553 0)scale(0.996264)" xlink:href="#CMSS17-97"/>
      <use transform="translate(639.636474 0)scale(0.996264)" xlink:href="#CMSS17-98"/>
      <use transform="translate(687.841417 0)scale(0.996264)" xlink:href="#CMSS17-115"/>
      <use transform="translate(723.754959 0)scale(0.996264)" xlink:href="#CMSS17-111"/>
      <use transform="translate(767.996128 0)scale(0.996264)" xlink:href="#CMSS17-114"/>
      <use transform="translate(799.905901 0)scale(0.996264)" xlink:href="#CMSS17-112"/>
      <use transform="translate(848.110844 0)scale(0.996264)" xlink:href="#CMSS17-116"/>
      <use transform="translate(881.942411 0)scale(0.996264)" xlink:href="#CMSS17-105"/>
      <use transform="translate(904.123134 0)scale(0.996264)" xlink:href="#CMSS17-111"/>
      <use transform="translate(950.966757 0)scale(0.996264)" xlink:href="#CMSS17-110"/>
      <use transform="translate(1030.400813 0)scale(0.996264)" xlink:href="#CMSS17-112"/>
      <use transform="translate(1081.208195 0)scale(0.996264)" xlink:href="#CMSS17-111"/>
      <use transform="translate(1125.449365 0)scale(0.996264)" xlink:href="#CMSS17-119"/>
      <use transform="translate(1186.666456 0)scale(0.996264)" xlink:href="#CMSS17-101"/>
      <use transform="translate(1228.305278 0)scale(0.996264)" xlink:href="#CMSS17-114"/>
     </g>
    </g>
   </g>
   <g id="line2d_14">
    <path clip-path="url(#pabde965f1e)" d="M 72 336.96 
L 132.415038 336.938425 
L 134.652632 334.53674 
L 136.890226 331.819261 
L 139.12782 328.784986 
L 141.365414 325.435827 
L 143.603008 321.776676 
L 146.959398 315.724811 
L 149.196992 311.322367 
L 151.434586 306.415858 
L 153.67218 300.895792 
L 155.909774 294.74518 
L 158.147368 287.956919 
L 160.384962 280.535059 
L 162.622556 272.495838 
L 165.978947 259.346998 
L 169.335338 245.033176 
L 172.691729 229.776995 
L 178.285714 203.056018 
L 184.998496 170.920976 
L 188.354887 155.760811 
L 191.711278 141.748312 
L 193.948872 133.234423 
L 196.186466 125.504257 
L 198.42406 118.650054 
L 200.661654 112.751498 
L 202.899248 107.874313 
L 204.018045 105.835199 
L 205.136842 104.069252 
L 206.255639 102.580378 
L 207.374436 101.371494 
L 208.493233 100.444534 
L 209.61203 99.800457 
L 210.730827 99.439259 
L 211.849624 99.36 
L 212.968421 99.560825 
L 214.087218 100.038997 
L 215.206015 100.79093 
L 216.324812 101.812228 
L 217.443609 103.09773 
L 218.562406 104.641549 
L 219.681203 106.437124 
L 220.8 108.477269 
L 223.037594 113.259693 
L 225.275188 118.920744 
L 227.512782 125.385635 
L 229.750376 132.574506 
L 231.98797 140.404007 
L 235.344361 153.162461 
L 238.700752 166.880271 
L 243.17594 186.17215 
L 256.601504 245.116146 
L 261.076692 263.374999 
L 264.433083 276.164734 
L 267.789474 288.015989 
L 271.145865 298.800657 
L 273.383459 305.34203 
L 275.621053 311.330079 
L 277.858647 316.738506 
L 280.096241 321.543935 
L 282.333835 325.725876 
L 284.571429 329.266704 
L 286.809023 332.151661 
L 287.92782 333.344359 
L 289.046617 334.368855 
L 290.165414 335.224117 
L 291.284211 335.909292 
L 292.403008 336.423713 
L 293.521805 336.766896 
L 294.640602 336.938543 
L 295.759398 336.938547 
L 296.878195 336.766985 
L 297.996992 336.42413 
L 299.115789 335.910443 
L 300.234586 335.226585 
L 301.353383 334.373409 
L 302.47218 333.351971 
L 303.590977 332.163528 
L 305.828571 329.286451 
L 308.066165 325.756211 
L 310.303759 321.588222 
L 312.541353 316.800967 
L 314.778947 311.416045 
L 317.016541 305.458224 
L 319.254135 298.955526 
L 321.491729 291.939329 
L 324.84812 280.529442 
L 328.204511 268.176471 
L 331.560902 255.032895 
L 336.03609 236.580515 
L 351.699248 170.768871 
L 355.055639 158.121526 
L 357.293233 150.310082 
L 359.530827 143.096304 
L 361.768421 136.565359 
L 364.006015 130.799115 
L 366.243609 125.874557 
L 368.481203 121.862123 
L 369.6 120.217758 
L 370.718797 118.824016 
L 371.837594 117.687112 
L 372.956391 116.812545 
L 374.075188 116.20505 
L 375.193985 115.868553 
L 376.312782 115.806134 
L 377.431579 116.019989 
L 378.550376 116.511396 
L 379.669173 117.280691 
L 380.78797 118.327245 
L 381.906767 119.649444 
L 383.025564 121.24468 
L 384.144361 123.109345 
L 385.263158 125.238835 
L 387.500752 130.268923 
L 389.738346 136.278578 
L 391.97594 143.196621 
L 394.213534 150.938247 
L 396.451128 159.406602 
L 399.807519 173.235537 
L 403.16391 188.066322 
L 409.876692 219.0916 
L 415.470677 244.44745 
L 418.827068 258.718642 
L 422.183459 271.948207 
L 424.421053 280.089111 
L 426.658647 287.63713 
L 428.896241 294.565161 
L 431.133835 300.859487 
L 433.371429 306.518943 
L 435.609023 311.570891 
L 438.965414 318.545947 
L 442.321805 324.906471 
L 444.559398 328.778348 
L 446.796992 332.340885 
L 449.034586 335.585056 
L 450.153383 336.96 
L 518.4 336.96 
L 518.4 336.96 
" style="fill:none;stroke:#ff0000;stroke-linecap:square;stroke-width:2;"/>
   </g>
   <g id="line2d_15">
    <path clip-path="url(#pabde965f1e)" d="M 72 218.98805 
L 74.237594 219.10503 
L 76.475188 219.455504 
L 78.712782 220.038082 
L 80.950376 220.850454 
L 83.18797 221.889399 
L 85.425564 223.150794 
L 87.663158 224.629636 
L 89.900752 226.320061 
L 92.138346 228.215364 
L 95.494737 231.425803 
L 98.851128 235.051479 
L 102.207519 239.06005 
L 105.56391 243.415757 
L 108.920301 248.079743 
L 113.395489 254.705677 
L 118.989474 263.493824 
L 126.821053 276.348705 
L 136.890226 292.903997 
L 142.484211 301.668421 
L 146.959398 308.267749 
L 151.434586 314.450959 
L 155.909774 320.26514 
L 159.266165 324.222435 
L 161.503759 326.608597 
L 163.741353 328.763695 
L 165.978947 330.669269 
L 168.216541 332.313531 
L 170.454135 333.691726 
L 172.691729 334.80621 
L 174.929323 335.666274 
L 177.166917 336.287697 
L 179.404511 336.692044 
L 181.642105 336.905745 
L 184.998496 336.935573 
L 188.354887 336.715943 
L 202.899248 335.408948 
L 207.374436 335.459067 
L 211.849624 335.774135 
L 224.156391 336.922038 
L 228.631579 336.96 
L 360.649624 336.882214 
L 364.006015 336.576591 
L 369.6 335.764637 
L 376.312782 334.792557 
L 379.669173 334.489577 
L 383.025564 334.379393 
L 386.381955 334.482133 
L 389.738346 334.786913 
L 394.213534 335.429735 
L 402.045113 336.650713 
L 405.401504 336.929973 
L 407.639098 336.948442 
L 409.876692 336.795073 
L 412.114286 336.441474 
L 414.35188 335.864031 
L 416.589474 335.044924 
L 418.827068 333.972895 
L 421.064662 332.643768 
L 423.302256 331.06069 
L 425.53985 329.234078 
L 427.777444 327.181303 
L 431.133835 323.731572 
L 434.490226 319.930298 
L 437.846617 315.83015 
L 441.203008 311.393617 
L 445.678195 305.021725 
L 450.153383 298.221137 
L 455.747368 289.282264 
L 466.935338 270.793126 
L 473.64812 259.923128 
L 478.123308 253.010404 
L 482.598496 246.493343 
L 485.954887 241.927622 
L 489.311278 237.683457 
L 492.667669 233.798706 
L 496.02406 230.308026 
L 499.380451 227.242554 
L 501.618045 225.448801 
L 503.855639 223.863381 
L 506.093233 222.492582 
L 508.330827 221.341842 
L 510.568421 220.415724 
L 512.806015 219.717903 
L 515.043609 219.251145 
L 517.281203 219.017302 
L 518.4 218.98805 
L 518.4 218.98805 
" style="fill:none;stroke:#ffa500;stroke-linecap:square;stroke-width:2;"/>
   </g>
   <g id="patch_3">
    <path d="M 72 384.48 
L 72 51.84 
" style="fill:none;stroke:#000000;stroke-linecap:square;stroke-linejoin:miter;stroke-width:0.8;"/>
   </g>
   <g id="patch_4">
    <path d="M 518.4 384.48 
L 518.4 51.84 
" style="fill:none;stroke:#000000;stroke-linecap:square;stroke-linejoin:miter;stroke-width:0.8;"/>
   </g>
   <g id="patch_5">
    <path d="M 72 384.48 
L 518.4 384.48 
" style="fill:none;stroke:#000000;stroke-linecap:square;stroke-linejoin:miter;stroke-width:0.8;"/>
   </g>
   <g id="patch_6">
    <path d="M 72 51.84 
L 518.4 51.84 
" style="fill:none;stroke:#000000;stroke-linecap:square;stroke-linejoin:miter;stroke-width:0.8;"/>
   </g>
   <g id="text_16">
    <!-- Heat and Light Absorption Power -->
    <defs>
     <path d="M 26.09375 6.46875 
C 24.90625 6.46875 23.703125 6.46875 22.5 6.46875 
L 17.203125 6.46875 
L 17.203125 69 
L 8.796875 69 
L 8.796875 0 
L 46.90625 0 
L 46.90625 6.46875 
z
" id="CMSS17-76"/>
     <path d="M 35.5 69 
L 26.90625 69 
L 2.59375 0 
L 10.203125 0 
L 17.203125 20 
L 44 20 
L 51.09375 0 
L 59.796875 0 
z
M 42.09375 25.578125 
L 19.09375 25.578125 
C 23.90625 39.5 29.90625 56.84375 30.59375 61.328125 
L 30.703125 61.328125 
C 31.40625 57.234375 33.40625 51.265625 35.09375 46.1875 
z
" id="CMSS17-65"/>
     <path d="M 32.90625 29 
C 44.90625 29 54.703125 38.328125 54.703125 49.34375 
C 54.703125 60.15625 45.296875 69.578125 32.296875 69.578125 
L 8.90625 69.578125 
L 8.90625 0 
L 17.296875 0 
L 17.296875 29 
z
M 30.09375 64 
C 41.703125 64 46.796875 56.671875 46.796875 49.328125 
C 46.796875 42.5 42.09375 34.78125 30.09375 34.78125 
L 17.09375 34.78125 
L 17.09375 64 
z
" id="CMSS17-80"/>
    </defs>
    <g transform="translate(186.093699 45.84)scale(0.16 -0.16)">
     <use transform="scale(0.996264)" xlink:href="#CMSS17-72"/>
     <use transform="translate(66.061519 0)scale(0.996264)" xlink:href="#CMSS17-101"/>
     <use transform="translate(107.700341 0)scale(0.996264)" xlink:href="#CMSS17-97"/>
     <use transform="translate(152.622262 0)scale(0.996264)" xlink:href="#CMSS17-116"/>
     <use transform="translate(217.682941 0)scale(0.996264)" xlink:href="#CMSS17-97"/>
     <use transform="translate(262.604862 0)scale(0.996264)" xlink:href="#CMSS17-110"/>
     <use transform="translate(310.809805 0)scale(0.996264)" xlink:href="#CMSS17-100"/>
     <use transform="translate(390.243861 0)scale(0.996264)" xlink:href="#CMSS17-76"/>
     <use transform="translate(440.930966 0)scale(0.996264)" xlink:href="#CMSS17-105"/>
     <use transform="translate(463.111689 0)scale(0.996264)" xlink:href="#CMSS17-103"/>
     <use transform="translate(509.955313 0)scale(0.996264)" xlink:href="#CMSS17-104"/>
     <use transform="translate(558.160256 0)scale(0.996264)" xlink:href="#CMSS17-116"/>
     <use transform="translate(623.220935 0)scale(0.996264)" xlink:href="#CMSS17-65"/>
     <use transform="translate(685.43879 0)scale(0.996264)" xlink:href="#CMSS17-98"/>
     <use transform="translate(733.643733 0)scale(0.996264)" xlink:href="#CMSS17-115"/>
     <use transform="translate(769.557275 0)scale(0.996264)" xlink:href="#CMSS17-111"/>
     <use transform="translate(813.798445 0)scale(0.996264)" xlink:href="#CMSS17-114"/>
     <use transform="translate(845.708218 0)scale(0.996264)" xlink:href="#CMSS17-112"/>
     <use transform="translate(893.913161 0)scale(0.996264)" xlink:href="#CMSS17-116"/>
     <use transform="translate(927.744727 0)scale(0.996264)" xlink:href="#CMSS17-105"/>
     <use transform="translate(949.92545 0)scale(0.996264)" xlink:href="#CMSS17-111"/>
     <use transform="translate(996.769074 0)scale(0.996264)" xlink:href="#CMSS17-110"/>
     <use transform="translate(1076.20313 0)scale(0.996264)" xlink:href="#CMSS17-80"/>
     <use transform="translate(1133.336262 0)scale(0.996264)" xlink:href="#CMSS17-111"/>
     <use transform="translate(1177.577432 0)scale(0.996264)" xlink:href="#CMSS17-119"/>
     <use transform="translate(1238.794523 0)scale(0.996264)" xlink:href="#CMSS17-101"/>
     <use transform="translate(1280.433345 0)scale(0.996264)" xlink:href="#CMSS17-114"/>
    </g>
   </g>
   <g id="legend_1">
    <g id="patch_7">
     <path d="M 79 87.714357 
L 129.486249 87.714357 
Q 131.486249 87.714357 131.486249 85.714357 
L 131.486249 58.84 
Q 131.486249 56.84 129.486249 56.84 
L 79 56.84 
Q 77 56.84 77 58.84 
L 77 85.714357 
Q 77 87.714357 79 87.714357 
z
" style="fill:#ffffff;opacity:0.8;stroke:#cccccc;stroke-linejoin:miter;"/>
    </g>
    <g id="line2d_16">
     <path d="M 81 64.34 
L 101 64.34 
" style="fill:none;stroke:#ff0000;stroke-linecap:square;stroke-width:2;"/>
    </g>
    <g id="line2d_17"/>
    <g id="text_17">
     <!-- heat -->
     <g transform="translate(109 67.84)scale(0.1 -0.1)">
      <use transform="scale(0.996264)" xlink:href="#CMSS17-104"/>
      <use transform="translate(48.204943 0)scale(0.996264)" xlink:href="#CMSS17-101"/>
      <use transform="translate(89.843765 0)scale(0.996264)" xlink:href="#CMSS17-97"/>
      <use transform="translate(134.765686 0)scale(0.996264)" xlink:href="#CMSS17-116"/>
     </g>
    </g>
    <g id="line2d_18">
     <path d="M 81 78.277178 
L 101 78.277178 
" style="fill:none;stroke:#ffa500;stroke-linecap:square;stroke-width:2;"/>
    </g>
    <g id="line2d_19"/>
    <g id="text_18">
     <!-- light -->
     <g transform="translate(109 81.777178)scale(0.1 -0.1)">
      <use transform="scale(0.996264)" xlink:href="#CMSS17-108"/>
      <use transform="translate(22.180723 0)scale(0.996264)" xlink:href="#CMSS17-105"/>
      <use transform="translate(44.361446 0)scale(0.996264)" xlink:href="#CMSS17-103"/>
      <use transform="translate(91.20507 0)scale(0.996264)" xlink:href="#CMSS17-104"/>
      <use transform="translate(139.410013 0)scale(0.996264)" xlink:href="#CMSS17-116"/>
     </g>
    </g>
   </g>
  </g>
 </g>
 <defs>
  <clipPath id="pabde965f1e">
   <rect height="332.64" width="446.4" x="72" y="51.84"/>
  </clipPath>
 </defs>
</svg>
