<?xml version="1.0" encoding="utf-8" standalone="no"?>
<!DOCTYPE svg PUBLIC "-//W3C//DTD SVG 1.1//EN"
  "http://www.w3.org/Graphics/SVG/1.1/DTD/svg11.dtd">
<!-- Created with matplotlib (http://matplotlib.org/) -->
<svg height="432pt" version="1.1" viewBox="0 0 576 432" width="576pt" xmlns="http://www.w3.org/2000/svg" xmlns:xlink="http://www.w3.org/1999/xlink">
 <defs>
  <style type="text/css">
*{stroke-linecap:butt;stroke-linejoin:round;}
  </style>
 </defs>
 <g id="figure_1">
  <g id="patch_1">
   <path d="M 0 432 
L 576 432 
L 576 0 
L 0 0 
z
" style="fill:#ffffff;"/>
  </g>
  <g id="axes_1">
   <g id="patch_2">
    <path d="M 72 384.48 
L 518.4 384.48 
L 518.4 51.84 
L 72 51.84 
z
" style="fill:#ffffff;"/>
   </g>
   <g id="matplotlib.axis_1">
    <g id="xtick_1">
     <g id="line2d_1">
      <defs>
       <path d="M 0 0 
L 0 3.5 
" id="ma4f06783ee" style="stroke:#000000;stroke-width:0.8;"/>
      </defs>
      <g>
       <use style="stroke:#000000;stroke-width:0.8;" x="72" xlink:href="#ma4f06783ee" y="384.48"/>
      </g>
     </g>
     <g id="text_1">
      <!-- $0$ -->
      <defs>
       <path d="M 42 31.640625 
C 42 37.75 41.90625 48.125 37.703125 56.109375 
C 34 63.109375 28.09375 65.59375 22.90625 65.59375 
C 18.09375 65.59375 12 63.40625 8.203125 56.203125 
C 4.203125 48.71875 3.796875 39.4375 3.796875 31.640625 
C 3.796875 25.953125 3.90625 17.28125 7 9.671875 
C 11.296875 -0.609375 19 -2 22.90625 -2 
C 27.5 -2 34.5 -0.109375 38.59375 9.375 
C 41.59375 16.28125 42 24.359375 42 31.640625 
z
M 22.90625 -0.40625 
C 16.5 -0.40625 12.703125 5.078125 11.296875 12.6875 
C 10.203125 18.5625 10.203125 27.15625 10.203125 32.75 
C 10.203125 40.4375 10.203125 46.828125 11.5 52.921875 
C 13.40625 61.390625 19 64 22.90625 64 
C 27 64 32.296875 61.296875 34.203125 53.125 
C 35.5 47.4375 35.59375 40.734375 35.59375 32.75 
C 35.59375 26.25 35.59375 18.265625 34.40625 12.375 
C 32.296875 1.484375 26.40625 -0.40625 22.90625 -0.40625 
z
" id="CMR17-48"/>
      </defs>
      <g transform="translate(69.073505 399.78218)scale(0.12 -0.12)">
       <use transform="scale(0.996264)" xlink:href="#CMR17-48"/>
      </g>
     </g>
    </g>
    <g id="xtick_2">
     <g id="line2d_2">
      <g>
       <use style="stroke:#000000;stroke-width:0.8;" x="183.6" xlink:href="#ma4f06783ee" y="384.48"/>
      </g>
     </g>
     <g id="text_2">
      <!-- $50$ -->
      <defs>
       <path d="M 11.40625 57.6875 
C 12.40625 57.28125 16.5 56 20.703125 56 
C 30 56 35.09375 61.109375 38 64.0625 
C 38 64.953125 38 65.5 37.40625 65.5 
C 37.296875 65.5 37.09375 65.5 36.296875 65.046875 
C 32.796875 63.40625 28.703125 62.078125 23.703125 62.078125 
C 20.703125 62.078125 16.203125 62.484375 11.296875 64.671875 
C 10.203125 65.171875 10 65.171875 9.90625 65.171875 
C 9.40625 65.171875 9.296875 65.0625 9.296875 63.078125 
L 9.296875 34.421875 
C 9.296875 32.640625 9.296875 32.140625 10.296875 32.140625 
C 10.796875 32.140625 11 32.34375 11.5 33.03125 
C 14.703125 37.515625 19.09375 39.40625 24.09375 39.40625 
C 27.59375 39.40625 35.09375 37.21875 35.09375 20.140625 
C 35.09375 16.953125 35.09375 11.171875 32.09375 6.578125 
C 29.59375 2.484375 25.703125 0.390625 21.40625 0.390625 
C 14.796875 0.390625 8.09375 5 6.296875 12.71875 
C 6.703125 12.609375 7.5 12.421875 7.90625 12.421875 
C 9.203125 12.421875 11.703125 13.125 11.703125 16.21875 
C 11.703125 18.90625 9.796875 20 7.90625 20 
C 5.59375 20 4.09375 18.59375 4.09375 15.796875 
C 4.09375 7.09375 11 -2 21.59375 -2 
C 31.90625 -2 41.703125 6.875 41.703125 19.75 
C 41.703125 31.71875 33.90625 41 24.203125 41 
C 19.09375 41 14.796875 39.109375 11.40625 35.53125 
z
" id="CMR17-53"/>
      </defs>
      <g transform="translate(177.74701 399.78218)scale(0.12 -0.12)">
       <use transform="scale(0.996264)" xlink:href="#CMR17-53"/>
       <use transform="translate(45.690477 0)scale(0.996264)" xlink:href="#CMR17-48"/>
      </g>
     </g>
    </g>
    <g id="xtick_3">
     <g id="line2d_3">
      <g>
       <use style="stroke:#000000;stroke-width:0.8;" x="295.2" xlink:href="#ma4f06783ee" y="384.48"/>
      </g>
     </g>
     <g id="text_3">
      <!-- $100$ -->
      <defs>
       <path d="M 26.59375 63.40625 
C 26.59375 65.5 26.5 65.5 25.09375 65.5 
C 21.203125 61.1875 15.296875 59.796875 9.703125 59.796875 
C 9.40625 59.796875 8.90625 59.796875 8.796875 59.5 
C 8.703125 59.296875 8.703125 59.09375 8.703125 57 
C 11.796875 57 17 57.59375 21 59.984375 
L 21 7.203125 
C 21 3.6875 20.796875 2.5 12.203125 2.5 
L 9.203125 2.5 
L 9.203125 0 
C 14 0 19 0 23.796875 0 
C 28.59375 0 33.59375 0 38.40625 0 
L 38.40625 2.5 
L 35.40625 2.5 
C 26.796875 2.5 26.59375 3.59375 26.59375 7.15625 
z
" id="CMR17-49"/>
      </defs>
      <g transform="translate(286.420515 399.78218)scale(0.12 -0.12)">
       <use transform="scale(0.996264)" xlink:href="#CMR17-49"/>
       <use transform="translate(45.690477 0)scale(0.996264)" xlink:href="#CMR17-48"/>
       <use transform="translate(91.380954 0)scale(0.996264)" xlink:href="#CMR17-48"/>
      </g>
     </g>
    </g>
    <g id="xtick_4">
     <g id="line2d_4">
      <g>
       <use style="stroke:#000000;stroke-width:0.8;" x="406.8" xlink:href="#ma4f06783ee" y="384.48"/>
      </g>
     </g>
     <g id="text_4">
      <!-- $150$ -->
      <g transform="translate(398.020515 399.78218)scale(0.12 -0.12)">
       <use transform="scale(0.996264)" xlink:href="#CMR17-49"/>
       <use transform="translate(45.690477 0)scale(0.996264)" xlink:href="#CMR17-53"/>
       <use transform="translate(91.380954 0)scale(0.996264)" xlink:href="#CMR17-48"/>
      </g>
     </g>
    </g>
    <g id="xtick_5">
     <g id="line2d_5">
      <g>
       <use style="stroke:#000000;stroke-width:0.8;" x="518.4" xlink:href="#ma4f06783ee" y="384.48"/>
      </g>
     </g>
     <g id="text_5">
      <!-- $200$ -->
      <defs>
       <path d="M 41.703125 15.453125 
L 39.90625 15.453125 
C 38.90625 8.375 38.09375 7.171875 37.703125 6.5625 
C 37.203125 5.765625 30 5.765625 28.59375 5.765625 
L 9.40625 5.765625 
C 13 9.671875 20 16.75 28.5 24.953125 
C 34.59375 30.734375 41.703125 37.53125 41.703125 47.421875 
C 41.703125 59.21875 32.296875 66 21.796875 66 
C 10.796875 66 4.09375 56.3125 4.09375 47.34375 
C 4.09375 43.4375 7 42.9375 8.203125 42.9375 
C 9.203125 42.9375 12.203125 43.546875 12.203125 47.03125 
C 12.203125 50.109375 9.59375 51 8.203125 51 
C 7.59375 51 7 50.90625 6.59375 50.703125 
C 8.5 59.21875 14.296875 63.40625 20.40625 63.40625 
C 29.09375 63.40625 34.796875 56.515625 34.796875 47.421875 
C 34.796875 38.734375 29.703125 31.25 24 24.75 
L 4.09375 2.28125 
L 4.09375 0 
L 39.296875 0 
z
" id="CMR17-50"/>
      </defs>
      <g transform="translate(509.620515 399.78218)scale(0.12 -0.12)">
       <use transform="scale(0.996264)" xlink:href="#CMR17-50"/>
       <use transform="translate(45.690477 0)scale(0.996264)" xlink:href="#CMR17-48"/>
       <use transform="translate(91.380954 0)scale(0.996264)" xlink:href="#CMR17-48"/>
      </g>
     </g>
    </g>
    <g id="text_6">
     <!-- time -->
     <defs>
      <path d="M 16.703125 37 
L 29.703125 37 
L 29.703125 42.765625 
L 16.703125 42.765625 
L 16.703125 55 
L 9.59375 55 
L 9.59375 42.765625 
L 1.703125 42.765625 
L 1.703125 37 
L 9.40625 37 
L 9.40625 11.703125 
C 9.40625 6 10.703125 -1 17.296875 -1 
C 22.296875 -1 26.90625 0.390625 31.296875 2.6875 
L 29.703125 8.5625 
C 27.296875 6.46875 24.40625 5.265625 21.296875 5.265625 
C 16.90625 5.265625 16.703125 10.875 16.703125 13.375 
z
" id="CMSS17-116"/>
      <path d="M 15.296875 65.359375 
L 6.90625 65.359375 
L 6.90625 57 
L 15.296875 57 
z
M 14.796875 42.796875 
L 7.40625 42.796875 
L 7.40625 0 
L 14.796875 0 
z
" id="CMSS17-105"/>
      <path d="M 67 29.328125 
C 67 36.0625 65.296875 44 54.09375 44 
C 46.59375 44 42.09375 39.3125 40.09375 36.421875 
C 38.296875 41.71875 34.09375 44 28.09375 44 
C 21.296875 44 17 40.125 14.703125 37.328125 
L 14.703125 43.09375 
L 7.40625 43.09375 
L 7.40625 0 
L 15 0 
L 15 24.359375 
C 15 30.296875 17.203125 37.9375 24.296875 37.9375 
C 33.40625 37.9375 33.40625 31.5 33.40625 28.578125 
L 33.40625 0 
L 41 0 
L 41 24.359375 
C 41 30.296875 43.203125 37.9375 50.296875 37.9375 
C 59.40625 37.9375 59.40625 31.5 59.40625 28.578125 
L 59.40625 0 
L 67 0 
z
" id="CMSS17-109"/>
      <path d="M 39.09375 21.515625 
C 39.09375 24.84375 38.90625 31.296875 35.703125 36.640625 
C 32.203125 42.390625 26.5 44 22.203125 44 
C 11.796875 44 3 34.1875 3 21.484375 
C 3 9.09375 12.09375 -1 23.59375 -1 
C 28.09375 -1 33.59375 0.296875 38.59375 3.875 
C 38.59375 4.28125 38.40625 6.46875 38.296875 6.5625 
C 38.296875 6.765625 38 9.84375 38 10.25 
C 33.203125 6.359375 27.703125 5.078125 23.703125 5.078125 
C 17.296875 5.078125 10.40625 10.421875 10.09375 21.515625 
z
M 10.90625 27 
C 12.203125 32.5625 16.59375 37.828125 22.203125 37.828125 
C 23.703125 37.828125 30.703125 37.828125 32.5 27 
z
" id="CMSS17-101"/>
     </defs>
     <g transform="translate(280.906539 417.176364)scale(0.16 -0.16)">
      <use transform="scale(0.996264)" xlink:href="#CMSS17-116"/>
      <use transform="translate(33.831567 0)scale(0.996264)" xlink:href="#CMSS17-105"/>
      <use transform="translate(56.01229 0)scale(0.996264)" xlink:href="#CMSS17-109"/>
      <use transform="translate(130.241544 0)scale(0.996264)" xlink:href="#CMSS17-101"/>
     </g>
    </g>
   </g>
   <g id="matplotlib.axis_2">
    <g id="ytick_1">
     <g id="line2d_6">
      <defs>
       <path d="M 0 0 
L -3.5 0 
" id="m92fb32fdd4" style="stroke:#000000;stroke-width:0.8;"/>
      </defs>
      <g>
       <use style="stroke:#000000;stroke-width:0.8;" x="72" xlink:href="#m92fb32fdd4" y="336.96"/>
      </g>
     </g>
     <g id="text_7">
      <!-- $0.00000$ -->
      <defs>
       <path d="M 18.40625 4.796875 
C 18.40625 7.6875 16 9.671875 13.59375 9.671875 
C 10.703125 9.671875 8.703125 7.28125 8.703125 4.890625 
C 8.703125 2 11.09375 0 13.5 0 
C 16.40625 0 18.40625 2.390625 18.40625 4.796875 
z
" id="CMMI12-58"/>
      </defs>
      <g transform="translate(26.630397 341.11109)scale(0.12 -0.12)">
       <use transform="scale(0.996264)" xlink:href="#CMR17-48"/>
       <use transform="translate(45.690477 0)scale(0.996264)" xlink:href="#CMMI12-58"/>
       <use transform="translate(72.787654 0)scale(0.996264)" xlink:href="#CMR17-48"/>
       <use transform="translate(118.478131 0)scale(0.996264)" xlink:href="#CMR17-48"/>
       <use transform="translate(164.168608 0)scale(0.996264)" xlink:href="#CMR17-48"/>
       <use transform="translate(209.859086 0)scale(0.996264)" xlink:href="#CMR17-48"/>
       <use transform="translate(255.549563 0)scale(0.996264)" xlink:href="#CMR17-48"/>
      </g>
     </g>
    </g>
    <g id="ytick_2">
     <g id="line2d_7">
      <g>
       <use style="stroke:#000000;stroke-width:0.8;" x="72" xlink:href="#m92fb32fdd4" y="283.27227"/>
      </g>
     </g>
     <g id="text_8">
      <!-- $0.00005$ -->
      <g transform="translate(26.630397 287.42336)scale(0.12 -0.12)">
       <use transform="scale(0.996264)" xlink:href="#CMR17-48"/>
       <use transform="translate(45.690477 0)scale(0.996264)" xlink:href="#CMMI12-58"/>
       <use transform="translate(72.787654 0)scale(0.996264)" xlink:href="#CMR17-48"/>
       <use transform="translate(118.478131 0)scale(0.996264)" xlink:href="#CMR17-48"/>
       <use transform="translate(164.168608 0)scale(0.996264)" xlink:href="#CMR17-48"/>
       <use transform="translate(209.859086 0)scale(0.996264)" xlink:href="#CMR17-48"/>
       <use transform="translate(255.549563 0)scale(0.996264)" xlink:href="#CMR17-53"/>
      </g>
     </g>
    </g>
    <g id="ytick_3">
     <g id="line2d_8">
      <g>
       <use style="stroke:#000000;stroke-width:0.8;" x="72" xlink:href="#m92fb32fdd4" y="229.584539"/>
      </g>
     </g>
     <g id="text_9">
      <!-- $0.00010$ -->
      <g transform="translate(26.630397 233.735629)scale(0.12 -0.12)">
       <use transform="scale(0.996264)" xlink:href="#CMR17-48"/>
       <use transform="translate(45.690477 0)scale(0.996264)" xlink:href="#CMMI12-58"/>
       <use transform="translate(72.787654 0)scale(0.996264)" xlink:href="#CMR17-48"/>
       <use transform="translate(118.478131 0)scale(0.996264)" xlink:href="#CMR17-48"/>
       <use transform="translate(164.168608 0)scale(0.996264)" xlink:href="#CMR17-48"/>
       <use transform="translate(209.859086 0)scale(0.996264)" xlink:href="#CMR17-49"/>
       <use transform="translate(255.549563 0)scale(0.996264)" xlink:href="#CMR17-48"/>
      </g>
     </g>
    </g>
    <g id="ytick_4">
     <g id="line2d_9">
      <g>
       <use style="stroke:#000000;stroke-width:0.8;" x="72" xlink:href="#m92fb32fdd4" y="175.896809"/>
      </g>
     </g>
     <g id="text_10">
      <!-- $0.00015$ -->
      <g transform="translate(26.630397 180.047899)scale(0.12 -0.12)">
       <use transform="scale(0.996264)" xlink:href="#CMR17-48"/>
       <use transform="translate(45.690477 0)scale(0.996264)" xlink:href="#CMMI12-58"/>
       <use transform="translate(72.787654 0)scale(0.996264)" xlink:href="#CMR17-48"/>
       <use transform="translate(118.478131 0)scale(0.996264)" xlink:href="#CMR17-48"/>
       <use transform="translate(164.168608 0)scale(0.996264)" xlink:href="#CMR17-48"/>
       <use transform="translate(209.859086 0)scale(0.996264)" xlink:href="#CMR17-49"/>
       <use transform="translate(255.549563 0)scale(0.996264)" xlink:href="#CMR17-53"/>
      </g>
     </g>
    </g>
    <g id="ytick_5">
     <g id="line2d_10">
      <g>
       <use style="stroke:#000000;stroke-width:0.8;" x="72" xlink:href="#m92fb32fdd4" y="122.209079"/>
      </g>
     </g>
     <g id="text_11">
      <!-- $0.00020$ -->
      <g transform="translate(26.630397 126.360169)scale(0.12 -0.12)">
       <use transform="scale(0.996264)" xlink:href="#CMR17-48"/>
       <use transform="translate(45.690477 0)scale(0.996264)" xlink:href="#CMMI12-58"/>
       <use transform="translate(72.787654 0)scale(0.996264)" xlink:href="#CMR17-48"/>
       <use transform="translate(118.478131 0)scale(0.996264)" xlink:href="#CMR17-48"/>
       <use transform="translate(164.168608 0)scale(0.996264)" xlink:href="#CMR17-48"/>
       <use transform="translate(209.859086 0)scale(0.996264)" xlink:href="#CMR17-50"/>
       <use transform="translate(255.549563 0)scale(0.996264)" xlink:href="#CMR17-48"/>
      </g>
     </g>
    </g>
    <g id="ytick_6">
     <g id="line2d_11">
      <g>
       <use style="stroke:#000000;stroke-width:0.8;" x="72" xlink:href="#m92fb32fdd4" y="68.521349"/>
      </g>
     </g>
     <g id="text_12">
      <!-- $0.00025$ -->
      <g transform="translate(26.630397 72.672439)scale(0.12 -0.12)">
       <use transform="scale(0.996264)" xlink:href="#CMR17-48"/>
       <use transform="translate(45.690477 0)scale(0.996264)" xlink:href="#CMMI12-58"/>
       <use transform="translate(72.787654 0)scale(0.996264)" xlink:href="#CMR17-48"/>
       <use transform="translate(118.478131 0)scale(0.996264)" xlink:href="#CMR17-48"/>
       <use transform="translate(164.168608 0)scale(0.996264)" xlink:href="#CMR17-48"/>
       <use transform="translate(209.859086 0)scale(0.996264)" xlink:href="#CMR17-50"/>
       <use transform="translate(255.549563 0)scale(0.996264)" xlink:href="#CMR17-53"/>
      </g>
     </g>
    </g>
    <g id="text_13">
     <!-- Heat and light absorption power -->
     <defs>
      <path d="M 57.40625 69 
L 49 69 
L 49 39.078125 
L 17.203125 39.078125 
L 17.203125 69 
L 8.796875 69 
L 8.796875 0 
L 17.203125 0 
L 17.203125 33 
L 49 33 
L 49 0 
L 57.40625 0 
z
" id="CMSS17-72"/>
      <path d="M 37.59375 27.984375 
C 37.59375 37.375 30.90625 43.875 21.90625 43.875 
C 17.5 43.875 12.703125 43.078125 7.203125 39.890625 
L 7.796875 33.359375 
C 10.296875 35.125 14.59375 38 21.796875 38 
C 26.90625 38 30 34.0625 30 27.84375 
L 30 24 
C 14 24 4 19.34375 4 11.34375 
C 4 7.203125 6.5 -1 14.796875 -1 
C 16.296875 -1 24.40625 -1 30.203125 3.390625 
L 30.203125 -0.296875 
L 37.59375 -0.296875 
z
M 30 12.75 
C 30 10.953125 30 8.5625 27 6.78125 
C 24.40625 5.078125 21.09375 5.078125 19.703125 5.078125 
C 14.703125 5.078125 11.296875 7.984375 11.296875 11.625 
C 11.296875 18.921875 26.90625 18.921875 30 18.921875 
z
" id="CMSS17-97"/>
      <path d="M 40.90625 29.328125 
C 40.90625 35.671875 39.40625 44 28.09375 44 
C 21.703125 44 17.5 40.71875 14.703125 37.328125 
L 14.703125 43.09375 
L 7.40625 43.09375 
L 7.40625 0 
L 15 0 
L 15 24.359375 
C 15 30.6875 17.40625 37.9375 24.203125 37.9375 
C 33 37.9375 33.296875 32 33.296875 28.578125 
L 33.296875 0 
L 40.90625 0 
z
" id="CMSS17-110"/>
      <path d="M 40.796875 69 
L 33.40625 69 
L 33.40625 38.09375 
C 30.296875 40.671875 25.203125 43.0625 19.59375 43.0625 
C 10.5 43.0625 3.296875 33.296875 3.296875 21.046875 
C 3.296875 8.78125 10.40625 -1 19.296875 -1 
C 26.203125 -1 30.796875 2.6875 33.203125 4.78125 
L 33.203125 -0.203125 
L 40.796875 -0.203125 
z
M 33.203125 13.0625 
C 33.203125 11.671875 33.203125 10.203125 30.09375 7.53125 
C 28.09375 5.859375 25.703125 5.078125 23.40625 5.078125 
C 18 5.078125 10.90625 9 10.90625 20.9375 
C 10.90625 33.34375 18.90625 37 24.40625 37 
C 28.09375 37 31.09375 35.21875 33.203125 32.265625 
z
" id="CMSS17-100"/>
      <path d="M 14.796875 69 
L 7.40625 69 
L 7.40625 0 
L 14.796875 0 
z
" id="CMSS17-108"/>
      <path d="M 44.5 43.875 
C 38.796875 43.875 33.90625 42.78125 29.90625 40.890625 
C 26.59375 43.390625 23.203125 43.875 20.90625 43.875 
C 12.203125 43.875 5.59375 36.703125 5.59375 28.34375 
C 5.59375 22.9375 8.59375 18.859375 8.796875 18.671875 
C 7 16.171875 6 13.484375 6 10.5 
C 6 7 7.40625 4.515625 8.5 3.125 
C 3.296875 -0.046875 2.59375 -4.90625 2.59375 -6.796875 
C 2.59375 -14.03125 11.703125 -20 23.40625 -20 
C 35.203125 -20 44.296875 -14.03125 44.296875 -6.6875 
C 44.296875 7 29 7 24.796875 7 
L 16.703125 7 
C 15.203125 7 11.203125 7 11.203125 12.359375 
C 11.203125 14.390625 12.09375 15.6875 12.203125 15.78125 
C 13.703125 14.6875 16.796875 13 20.90625 13 
C 29.203125 13 36.09375 19.96875 36.09375 28.546875 
C 36.09375 33.3125 33.90625 36.796875 33 38 
L 33.296875 38 
C 33.59375 38 37.796875 38 39.296875 38 
C 42.5 38 42.796875 37.953125 45.59375 37.796875 
z
M 20.90625 18.46875 
C 17.5 18.46875 12.703125 20.546875 12.703125 28.484375 
C 12.703125 37.109375 18.203125 38.5 20.796875 38.5 
C 24.203125 38.5 29 36.421875 29 28.484375 
C 29 19.859375 23.5 18.46875 20.90625 18.46875 
z
M 24.703125 -0.15625 
C 27.09375 -0.15625 37.203125 -0.15625 37.203125 -6.90625 
C 37.203125 -11.15625 31 -14.515625 23.5 -14.515625 
C 15.90625 -14.515625 9.703125 -11.25 9.703125 -6.796875 
C 9.703125 -6.296875 9.703125 -0.15625 16.59375 -0.15625 
z
" id="CMSS17-103"/>
      <path d="M 40.90625 29.546875 
C 40.90625 35.8125 39.40625 44.0625 28.09375 44.0625 
C 21.796875 44.0625 17.703125 40.984375 14.796875 37.609375 
L 14.796875 69.5 
L 7.40625 69.5 
L 7.40625 0.5 
L 15 0.5 
L 15 24.578125 
C 15 30.828125 17.40625 38 24.203125 38 
C 33 38 33.296875 32.125 33.296875 28.734375 
L 33.296875 0.5 
L 40.90625 0.5 
z
" id="CMSS17-104"/>
      <path d="M 14.90625 69 
L 7.5 69 
L 7.5 -0.203125 
L 15.09375 -0.203125 
L 15.09375 4.28125 
C 18.90625 0.59375 23.5 -1 27.59375 -1 
C 37.203125 -1 45 8.578125 45 21.125 
C 45 32.59375 39 43.0625 30.09375 43.0625 
C 23.796875 43.0625 18.203125 40.484375 14.90625 37.796875 
z
M 15.09375 31.96875 
C 17.296875 34.71875 20.40625 37 24.796875 37 
C 30.703125 37 37.40625 32.765625 37.40625 21.125 
C 37.40625 8.71875 29.40625 5.078125 23.90625 5.078125 
C 21.90625 5.078125 19.796875 5.5625 17.796875 7.25 
C 15.09375 9.609375 15.09375 11.078125 15.09375 12.453125 
z
" id="CMSS17-98"/>
      <path d="M 32.203125 41.046875 
C 26.296875 43.859375 21.703125 43.859375 18.703125 43.859375 
C 11.59375 43.859375 3.09375 41.375 3.09375 31.296875 
C 3.09375 21.234375 14.09375 19.03125 17.09375 18.421875 
C 21.703125 17.53125 26.796875 16.53125 26.796875 11.5625 
C 26.796875 5.265625 19.59375 5.265625 18.296875 5.265625 
C 14.296875 5.265625 8.796875 6.359375 3.796875 9.96875 
L 2.59375 3.28125 
C 8.296875 0 13.796875 -1 18.40625 -1 
C 30.703125 -1 33.796875 6.5 33.796875 12.203125 
C 33.796875 17.09375 31 20.390625 29.09375 21.890625 
C 25.796875 24.5 24.59375 24.796875 16.40625 26.5 
C 15 26.703125 10.09375 27.796875 10.09375 32.28125 
C 10.09375 38 16.40625 38 17.796875 38 
C 24.296875 38 28.296875 35.984375 31 34.5 
z
" id="CMSS17-115"/>
      <path d="M 44.203125 21.1875 
C 44.203125 34 34.703125 44 23.5 44 
C 12 44 2.703125 33.703125 2.703125 21.1875 
C 2.703125 8.5 12.296875 -1 23.40625 -1 
C 34.796875 -1 44.203125 8.796875 44.203125 21.1875 
z
M 23.5 5.265625 
C 16.40625 5.265625 10.296875 11.078125 10.296875 22 
C 10.296875 33.609375 17.40625 37.921875 23.40625 37.921875 
C 29.90625 37.921875 36.59375 33.21875 36.59375 22 
C 36.59375 10.671875 30.09375 5.265625 23.5 5.265625 
z
" id="CMSS17-111"/>
      <path d="M 14.90625 21.296875 
C 14.90625 30.703125 21.796875 37 30.59375 37 
L 30.59375 43.578125 
C 24.203125 43.578125 18.203125 40.390625 14.59375 35.203125 
L 14.59375 43.09375 
L 7.5 43.09375 
L 7.5 0 
L 14.90625 0 
z
" id="CMSS17-114"/>
      <path d="M 15.09375 5.203125 
C 18.40625 2.015625 22.90625 -0.078125 27.703125 -0.078125 
C 37 -0.078125 45 9.421875 45 22.0625 
C 45 33.734375 39 44 30.40625 44 
C 25.40625 44 19.40625 42.21875 14.90625 38.625 
L 14.90625 43.203125 
L 7.5 43.203125 
L 7.5 -19 
L 15.09375 -19 
z
M 15.09375 32.8125 
C 15.90625 34 19.296875 37.734375 24.796875 37.734375 
C 31.796875 37.734375 37.40625 30.625 37.40625 22.0625 
C 37.40625 12.296875 30.59375 6 23.90625 6 
C 21.90625 6 19.796875 6.484375 17.796875 8.171875 
C 15.09375 10.53125 15.09375 12 15.09375 13.390625 
z
" id="CMSS17-112"/>
      <path d="M 62.703125 43 
L 55.09375 43 
L 49.796875 25.015625 
C 48.703125 21.21875 45.59375 10.703125 45.203125 5.796875 
L 45.09375 5.796875 
C 44.90625 8.8125 43.203125 16 40.40625 25.515625 
L 35.296875 43 
L 28.40625 43 
L 23.40625 25.90625 
C 20.90625 17.203125 19 9.796875 18.796875 5.796875 
L 18.703125 5.796875 
C 18.296875 11.703125 14.203125 25.515625 13.59375 27.703125 
L 9.09375 43 
L 1.296875 43 
L 14.296875 0 
L 21.90625 0 
C 27.09375 17.125 31.09375 30.359375 31.40625 37.03125 
C 31.59375 33.75 33.296875 26.671875 34.296875 23.1875 
L 40.90625 0 
L 49.703125 0 
z
" id="CMSS17-119"/>
     </defs>
     <g transform="translate(19.530921 322.939995)rotate(-90)scale(0.16 -0.16)">
      <use transform="scale(0.996264)" xlink:href="#CMSS17-72"/>
      <use transform="translate(66.061519 0)scale(0.996264)" xlink:href="#CMSS17-101"/>
      <use transform="translate(107.700341 0)scale(0.996264)" xlink:href="#CMSS17-97"/>
      <use transform="translate(152.622262 0)scale(0.996264)" xlink:href="#CMSS17-116"/>
      <use transform="translate(217.682941 0)scale(0.996264)" xlink:href="#CMSS17-97"/>
      <use transform="translate(262.604862 0)scale(0.996264)" xlink:href="#CMSS17-110"/>
      <use transform="translate(310.809805 0)scale(0.996264)" xlink:href="#CMSS17-100"/>
      <use transform="translate(390.243861 0)scale(0.996264)" xlink:href="#CMSS17-108"/>
      <use transform="translate(412.424584 0)scale(0.996264)" xlink:href="#CMSS17-105"/>
      <use transform="translate(434.605307 0)scale(0.996264)" xlink:href="#CMSS17-103"/>
      <use transform="translate(481.448931 0)scale(0.996264)" xlink:href="#CMSS17-104"/>
      <use transform="translate(529.653874 0)scale(0.996264)" xlink:href="#CMSS17-116"/>
      <use transform="translate(594.714553 0)scale(0.996264)" xlink:href="#CMSS17-97"/>
      <use transform="translate(639.636474 0)scale(0.996264)" xlink:href="#CMSS17-98"/>
      <use transform="translate(687.841417 0)scale(0.996264)" xlink:href="#CMSS17-115"/>
      <use transform="translate(723.754959 0)scale(0.996264)" xlink:href="#CMSS17-111"/>
      <use transform="translate(767.996128 0)scale(0.996264)" xlink:href="#CMSS17-114"/>
      <use transform="translate(799.905901 0)scale(0.996264)" xlink:href="#CMSS17-112"/>
      <use transform="translate(848.110844 0)scale(0.996264)" xlink:href="#CMSS17-116"/>
      <use transform="translate(881.942411 0)scale(0.996264)" xlink:href="#CMSS17-105"/>
      <use transform="translate(904.123134 0)scale(0.996264)" xlink:href="#CMSS17-111"/>
      <use transform="translate(950.966757 0)scale(0.996264)" xlink:href="#CMSS17-110"/>
      <use transform="translate(1030.400813 0)scale(0.996264)" xlink:href="#CMSS17-112"/>
      <use transform="translate(1081.208195 0)scale(0.996264)" xlink:href="#CMSS17-111"/>
      <use transform="translate(1125.449365 0)scale(0.996264)" xlink:href="#CMSS17-119"/>
      <use transform="translate(1186.666456 0)scale(0.996264)" xlink:href="#CMSS17-101"/>
      <use transform="translate(1228.305278 0)scale(0.996264)" xlink:href="#CMSS17-114"/>
     </g>
    </g>
   </g>
   <g id="line2d_12">
    <path clip-path="url(#pcc8f3eede5)" d="M 72 336.96 
L 138.009023 336.96 
L 139.12782 336.235156 
L 141.365414 333.052546 
L 143.603008 329.525709 
L 145.840602 325.661089 
L 148.078195 321.468474 
L 151.434586 314.594162 
L 154.790977 307.070196 
L 157.028571 301.62778 
L 159.266165 295.573822 
L 161.503759 288.88796 
L 163.741353 281.573017 
L 165.978947 273.643627 
L 169.335338 260.660508 
L 172.691729 246.506024 
L 176.04812 231.392845 
L 181.642105 204.843896 
L 189.473684 167.572444 
L 192.830075 152.658507 
L 196.186466 138.957248 
L 198.42406 130.681532 
L 200.661654 123.212259 
L 202.899248 116.640956 
L 205.136842 111.046705 
L 206.255639 108.636936 
L 207.374436 106.494764 
L 208.493233 104.626023 
L 209.61203 103.035584 
L 210.730827 101.72734 
L 211.849624 100.704206 
L 212.968421 99.968119 
L 214.087218 99.520046 
L 215.206015 99.36 
L 216.324812 99.487054 
L 217.443609 99.89937 
L 218.562406 100.594219 
L 219.681203 101.56802 
L 220.8 102.816371 
L 221.918797 104.334091 
L 223.037594 106.115256 
L 224.156391 108.153248 
L 226.393985 112.970032 
L 228.631579 118.719339 
L 230.869173 125.327966 
L 233.106767 132.716176 
L 235.344361 140.799233 
L 238.700752 154.032976 
L 242.057143 168.325439 
L 246.532331 188.498425 
L 259.957895 250.166293 
L 263.314286 264.491017 
L 266.670677 277.938569 
L 270.027068 290.32741 
L 272.264662 297.918832 
L 274.502256 304.926575 
L 276.73985 311.313082 
L 278.977444 317.045043 
L 281.215038 322.093379 
L 283.452632 326.433245 
L 285.690226 330.044043 
L 286.809023 331.570776 
L 287.92782 332.909463 
L 289.046617 334.058747 
L 290.165414 335.017544 
L 291.284211 335.785051 
L 292.403008 336.360748 
L 293.521805 336.744401 
L 294.640602 336.936065 
L 295.759398 336.936092 
L 296.878195 336.745132 
L 297.996992 336.364137 
L 299.115789 335.79437 
L 300.234586 335.037408 
L 301.353383 334.095146 
L 302.47218 332.969804 
L 303.590977 331.663935 
L 305.828571 328.522504 
L 308.066165 324.667991 
L 310.303759 320.097393 
L 312.541353 314.856039 
L 314.778947 308.973673 
L 317.016541 302.484751 
L 319.254135 295.428454 
L 322.610526 283.877555 
L 325.966917 271.318268 
L 329.323308 257.942855 
L 333.798496 239.215882 
L 344.986466 191.661385 
L 348.342857 178.347468 
L 351.699248 166.007217 
L 353.936842 158.470289 
L 356.174436 151.586496 
L 358.41203 145.438386 
L 360.649624 140.103166 
L 362.887218 135.651184 
L 364.006015 133.77614 
L 365.124812 132.144407 
L 366.243609 130.762177 
L 367.362406 129.634936 
L 368.481203 128.767424 
L 369.6 128.163596 
L 370.718797 127.826585 
L 371.837594 127.758673 
L 372.956391 127.96126 
L 374.075188 128.43484 
L 375.193985 129.178982 
L 376.312782 130.192316 
L 377.431579 131.472522 
L 378.550376 133.016326 
L 379.669173 134.819501 
L 380.78797 136.876877 
L 383.025564 141.728901 
L 385.263158 147.512771 
L 387.500752 154.155199 
L 389.738346 161.571262 
L 391.97594 169.666884 
L 395.332331 182.857979 
L 398.688722 196.972948 
L 413.233083 259.509677 
L 416.589474 272.353407 
L 419.945865 284.068554 
L 422.183459 291.179818 
L 424.421053 297.70074 
L 426.658647 303.622116 
L 430.015038 311.91038 
L 433.371429 319.699098 
L 436.72782 326.896792 
L 440.084211 333.426708 
L 441.203008 335.44396 
L 442.321805 336.96 
L 518.4 336.96 
L 518.4 336.96 
" style="fill:none;stroke:#ff0000;stroke-linecap:square;stroke-width:2;"/>
   </g>
   <g id="line2d_13">
    <path clip-path="url(#pcc8f3eede5)" d="M 72 199.51941 
L 74.237594 199.655695 
L 76.475188 200.064007 
L 78.712782 200.742727 
L 80.950376 201.689163 
L 83.18797 202.899562 
L 85.425564 204.369122 
L 87.663158 206.092015 
L 89.900752 208.061406 
L 92.138346 210.269486 
L 94.37594 212.707496 
L 97.732331 216.774235 
L 101.088722 221.300077 
L 104.445113 226.244647 
L 107.801504 231.563839 
L 112.276692 239.156395 
L 116.75188 247.209911 
L 122.345865 257.730038 
L 140.246617 291.828152 
L 144.721805 299.751025 
L 149.196992 307.174456 
L 152.553383 312.343139 
L 155.909774 317.120245 
L 159.266165 321.536794 
L 162.622556 325.531547 
L 164.86015 327.907598 
L 167.097744 330.024584 
L 169.335338 331.864289 
L 171.572932 333.415344 
L 173.810526 334.673583 
L 176.04812 335.642142 
L 178.285714 336.331312 
L 180.523308 336.758123 
L 182.760902 336.945697 
L 184.998496 336.922381 
L 187.23609 336.720694 
L 190.592481 336.161887 
L 195.067669 335.13454 
L 201.780451 333.564886 
L 205.136842 332.980978 
L 208.493233 332.619368 
L 211.849624 332.510074 
L 215.206015 332.653707 
L 218.562406 333.024202 
L 223.037594 333.786007 
L 236.463158 336.383055 
L 239.819549 336.7628 
L 243.17594 336.94572 
L 252.126316 336.96 
L 334.917293 336.889643 
L 338.273684 336.656983 
L 341.630075 336.246463 
L 344.986466 335.657336 
L 349.461654 334.623825 
L 355.055639 333.060803 
L 362.887218 330.864593 
L 366.243609 330.120671 
L 369.6 329.596678 
L 372.956391 329.348402 
L 376.312782 329.412152 
L 379.669173 329.799207 
L 383.025564 330.492065 
L 386.381955 331.443048 
L 390.857143 332.976449 
L 397.569925 335.32077 
L 400.926316 336.239286 
L 403.16391 336.670318 
L 405.401504 336.915302 
L 407.639098 336.943306 
L 409.876692 336.728376 
L 412.114286 336.250486 
L 414.35188 335.496268 
L 416.589474 334.459518 
L 418.827068 333.141434 
L 421.064662 331.55059 
L 423.302256 329.702659 
L 425.53985 327.619883 
L 427.777444 325.322116 
L 431.133835 321.457622 
L 434.490226 317.118394 
L 437.846617 312.343139 
L 441.203008 307.174456 
L 444.559398 301.658452 
L 449.034586 293.848942 
L 454.628571 283.531409 
L 462.46015 268.510245 
L 471.410526 251.36987 
L 477.004511 241.131435 
L 481.479699 233.412038 
L 484.83609 227.978365 
L 488.192481 222.903847 
L 491.548872 218.233751 
L 494.905263 214.009737 
L 498.261654 210.269486 
L 500.499248 208.061406 
L 502.736842 206.092015 
L 504.974436 204.369122 
L 507.21203 202.899562 
L 509.449624 201.689163 
L 511.687218 200.742727 
L 513.924812 200.064007 
L 516.162406 199.655695 
L 518.4 199.51941 
L 518.4 199.51941 
" style="fill:none;stroke:#ffa500;stroke-linecap:square;stroke-width:2;"/>
   </g>
   <g id="patch_3">
    <path d="M 72 384.48 
L 72 51.84 
" style="fill:none;stroke:#000000;stroke-linecap:square;stroke-linejoin:miter;stroke-width:0.8;"/>
   </g>
   <g id="patch_4">
    <path d="M 518.4 384.48 
L 518.4 51.84 
" style="fill:none;stroke:#000000;stroke-linecap:square;stroke-linejoin:miter;stroke-width:0.8;"/>
   </g>
   <g id="patch_5">
    <path d="M 72 384.48 
L 518.4 384.48 
" style="fill:none;stroke:#000000;stroke-linecap:square;stroke-linejoin:miter;stroke-width:0.8;"/>
   </g>
   <g id="patch_6">
    <path d="M 72 51.84 
L 518.4 51.84 
" style="fill:none;stroke:#000000;stroke-linecap:square;stroke-linejoin:miter;stroke-width:0.8;"/>
   </g>
   <g id="text_14">
    <!-- Heat and Light Absorption Power -->
    <defs>
     <path d="M 26.09375 6.46875 
C 24.90625 6.46875 23.703125 6.46875 22.5 6.46875 
L 17.203125 6.46875 
L 17.203125 69 
L 8.796875 69 
L 8.796875 0 
L 46.90625 0 
L 46.90625 6.46875 
z
" id="CMSS17-76"/>
     <path d="M 35.5 69 
L 26.90625 69 
L 2.59375 0 
L 10.203125 0 
L 17.203125 20 
L 44 20 
L 51.09375 0 
L 59.796875 0 
z
M 42.09375 25.578125 
L 19.09375 25.578125 
C 23.90625 39.5 29.90625 56.84375 30.59375 61.328125 
L 30.703125 61.328125 
C 31.40625 57.234375 33.40625 51.265625 35.09375 46.1875 
z
" id="CMSS17-65"/>
     <path d="M 32.90625 29 
C 44.90625 29 54.703125 38.328125 54.703125 49.34375 
C 54.703125 60.15625 45.296875 69.578125 32.296875 69.578125 
L 8.90625 69.578125 
L 8.90625 0 
L 17.296875 0 
L 17.296875 29 
z
M 30.09375 64 
C 41.703125 64 46.796875 56.671875 46.796875 49.328125 
C 46.796875 42.5 42.09375 34.78125 30.09375 34.78125 
L 17.09375 34.78125 
L 17.09375 64 
z
" id="CMSS17-80"/>
    </defs>
    <g transform="translate(186.093699 45.84)scale(0.16 -0.16)">
     <use transform="scale(0.996264)" xlink:href="#CMSS17-72"/>
     <use transform="translate(66.061519 0)scale(0.996264)" xlink:href="#CMSS17-101"/>
     <use transform="translate(107.700341 0)scale(0.996264)" xlink:href="#CMSS17-97"/>
     <use transform="translate(152.622262 0)scale(0.996264)" xlink:href="#CMSS17-116"/>
     <use transform="translate(217.682941 0)scale(0.996264)" xlink:href="#CMSS17-97"/>
     <use transform="translate(262.604862 0)scale(0.996264)" xlink:href="#CMSS17-110"/>
     <use transform="translate(310.809805 0)scale(0.996264)" xlink:href="#CMSS17-100"/>
     <use transform="translate(390.243861 0)scale(0.996264)" xlink:href="#CMSS17-76"/>
     <use transform="translate(440.930966 0)scale(0.996264)" xlink:href="#CMSS17-105"/>
     <use transform="translate(463.111689 0)scale(0.996264)" xlink:href="#CMSS17-103"/>
     <use transform="translate(509.955313 0)scale(0.996264)" xlink:href="#CMSS17-104"/>
     <use transform="translate(558.160256 0)scale(0.996264)" xlink:href="#CMSS17-116"/>
     <use transform="translate(623.220935 0)scale(0.996264)" xlink:href="#CMSS17-65"/>
     <use transform="translate(685.43879 0)scale(0.996264)" xlink:href="#CMSS17-98"/>
     <use transform="translate(733.643733 0)scale(0.996264)" xlink:href="#CMSS17-115"/>
     <use transform="translate(769.557275 0)scale(0.996264)" xlink:href="#CMSS17-111"/>
     <use transform="translate(813.798445 0)scale(0.996264)" xlink:href="#CMSS17-114"/>
     <use transform="translate(845.708218 0)scale(0.996264)" xlink:href="#CMSS17-112"/>
     <use transform="translate(893.913161 0)scale(0.996264)" xlink:href="#CMSS17-116"/>
     <use transform="translate(927.744727 0)scale(0.996264)" xlink:href="#CMSS17-105"/>
     <use transform="translate(949.92545 0)scale(0.996264)" xlink:href="#CMSS17-111"/>
     <use transform="translate(996.769074 0)scale(0.996264)" xlink:href="#CMSS17-110"/>
     <use transform="translate(1076.20313 0)scale(0.996264)" xlink:href="#CMSS17-80"/>
     <use transform="translate(1133.336262 0)scale(0.996264)" xlink:href="#CMSS17-111"/>
     <use transform="translate(1177.577432 0)scale(0.996264)" xlink:href="#CMSS17-119"/>
     <use transform="translate(1238.794523 0)scale(0.996264)" xlink:href="#CMSS17-101"/>
     <use transform="translate(1280.433345 0)scale(0.996264)" xlink:href="#CMSS17-114"/>
    </g>
   </g>
   <g id="legend_1">
    <g id="patch_7">
     <path d="M 79 87.714357 
L 129.486249 87.714357 
Q 131.486249 87.714357 131.486249 85.714357 
L 131.486249 58.84 
Q 131.486249 56.84 129.486249 56.84 
L 79 56.84 
Q 77 56.84 77 58.84 
L 77 85.714357 
Q 77 87.714357 79 87.714357 
z
" style="fill:#ffffff;opacity:0.8;stroke:#cccccc;stroke-linejoin:miter;"/>
    </g>
    <g id="line2d_14">
     <path d="M 81 64.34 
L 101 64.34 
" style="fill:none;stroke:#ff0000;stroke-linecap:square;stroke-width:2;"/>
    </g>
    <g id="line2d_15"/>
    <g id="text_15">
     <!-- heat -->
     <g transform="translate(109 67.84)scale(0.1 -0.1)">
      <use transform="scale(0.996264)" xlink:href="#CMSS17-104"/>
      <use transform="translate(48.204943 0)scale(0.996264)" xlink:href="#CMSS17-101"/>
      <use transform="translate(89.843765 0)scale(0.996264)" xlink:href="#CMSS17-97"/>
      <use transform="translate(134.765686 0)scale(0.996264)" xlink:href="#CMSS17-116"/>
     </g>
    </g>
    <g id="line2d_16">
     <path d="M 81 78.277178 
L 101 78.277178 
" style="fill:none;stroke:#ffa500;stroke-linecap:square;stroke-width:2;"/>
    </g>
    <g id="line2d_17"/>
    <g id="text_16">
     <!-- light -->
     <g transform="translate(109 81.777178)scale(0.1 -0.1)">
      <use transform="scale(0.996264)" xlink:href="#CMSS17-108"/>
      <use transform="translate(22.180723 0)scale(0.996264)" xlink:href="#CMSS17-105"/>
      <use transform="translate(44.361446 0)scale(0.996264)" xlink:href="#CMSS17-103"/>
      <use transform="translate(91.20507 0)scale(0.996264)" xlink:href="#CMSS17-104"/>
      <use transform="translate(139.410013 0)scale(0.996264)" xlink:href="#CMSS17-116"/>
     </g>
    </g>
   </g>
  </g>
 </g>
 <defs>
  <clipPath id="pcc8f3eede5">
   <rect height="332.64" width="446.4" x="72" y="51.84"/>
  </clipPath>
 </defs>
</svg>
