<?xml version="1.0" encoding="utf-8" standalone="no"?>
<!DOCTYPE svg PUBLIC "-//W3C//DTD SVG 1.1//EN"
  "http://www.w3.org/Graphics/SVG/1.1/DTD/svg11.dtd">
<!-- Created with matplotlib (http://matplotlib.org/) -->
<svg height="432pt" version="1.1" viewBox="0 0 648 432" width="648pt" xmlns="http://www.w3.org/2000/svg" xmlns:xlink="http://www.w3.org/1999/xlink">
 <defs>
  <style type="text/css">
*{stroke-linecap:butt;stroke-linejoin:round;}
  </style>
 </defs>
 <g id="figure_1">
  <g id="patch_1">
   <path d="M 0 432 
L 648 432 
L 648 0 
L 0 0 
z
" style="fill:#ffffff;"/>
  </g>
  <g id="axes_1">
   <g id="patch_2">
    <path d="M 81 384.48 
L 583.2 384.48 
L 583.2 51.84 
L 81 51.84 
z
" style="fill:#ffffff;"/>
   </g>
   <g id="matplotlib.axis_1">
    <g id="xtick_1">
     <g id="line2d_1">
      <defs>
       <path d="M 0 0 
L 0 3.5 
" id="md9bf07495e" style="stroke:#000000;stroke-width:0.8;"/>
      </defs>
      <g>
       <use style="stroke:#000000;stroke-width:0.8;" x="81" xlink:href="#md9bf07495e" y="384.48"/>
      </g>
     </g>
     <g id="text_1">
      <!-- $0$ -->
      <defs>
       <path d="M 42 31.640625 
C 42 37.75 41.90625 48.125 37.703125 56.109375 
C 34 63.109375 28.09375 65.59375 22.90625 65.59375 
C 18.09375 65.59375 12 63.40625 8.203125 56.203125 
C 4.203125 48.71875 3.796875 39.4375 3.796875 31.640625 
C 3.796875 25.953125 3.90625 17.28125 7 9.671875 
C 11.296875 -0.609375 19 -2 22.90625 -2 
C 27.5 -2 34.5 -0.109375 38.59375 9.375 
C 41.59375 16.28125 42 24.359375 42 31.640625 
z
M 22.90625 -0.40625 
C 16.5 -0.40625 12.703125 5.078125 11.296875 12.6875 
C 10.203125 18.5625 10.203125 27.15625 10.203125 32.75 
C 10.203125 40.4375 10.203125 46.828125 11.5 52.921875 
C 13.40625 61.390625 19 64 22.90625 64 
C 27 64 32.296875 61.296875 34.203125 53.125 
C 35.5 47.4375 35.59375 40.734375 35.59375 32.75 
C 35.59375 26.25 35.59375 18.265625 34.40625 12.375 
C 32.296875 1.484375 26.40625 -0.40625 22.90625 -0.40625 
z
" id="CMR17-48"/>
      </defs>
      <g transform="translate(78.073505 399.78218)scale(0.12 -0.12)">
       <use transform="scale(0.996264)" xlink:href="#CMR17-48"/>
      </g>
     </g>
    </g>
    <g id="xtick_2">
     <g id="line2d_2">
      <g>
       <use style="stroke:#000000;stroke-width:0.8;" x="206.55" xlink:href="#md9bf07495e" y="384.48"/>
      </g>
     </g>
     <g id="text_2">
      <!-- $50$ -->
      <defs>
       <path d="M 11.40625 57.6875 
C 12.40625 57.28125 16.5 56 20.703125 56 
C 30 56 35.09375 61.109375 38 64.0625 
C 38 64.953125 38 65.5 37.40625 65.5 
C 37.296875 65.5 37.09375 65.5 36.296875 65.046875 
C 32.796875 63.40625 28.703125 62.078125 23.703125 62.078125 
C 20.703125 62.078125 16.203125 62.484375 11.296875 64.671875 
C 10.203125 65.171875 10 65.171875 9.90625 65.171875 
C 9.40625 65.171875 9.296875 65.0625 9.296875 63.078125 
L 9.296875 34.421875 
C 9.296875 32.640625 9.296875 32.140625 10.296875 32.140625 
C 10.796875 32.140625 11 32.34375 11.5 33.03125 
C 14.703125 37.515625 19.09375 39.40625 24.09375 39.40625 
C 27.59375 39.40625 35.09375 37.21875 35.09375 20.140625 
C 35.09375 16.953125 35.09375 11.171875 32.09375 6.578125 
C 29.59375 2.484375 25.703125 0.390625 21.40625 0.390625 
C 14.796875 0.390625 8.09375 5 6.296875 12.71875 
C 6.703125 12.609375 7.5 12.421875 7.90625 12.421875 
C 9.203125 12.421875 11.703125 13.125 11.703125 16.21875 
C 11.703125 18.90625 9.796875 20 7.90625 20 
C 5.59375 20 4.09375 18.59375 4.09375 15.796875 
C 4.09375 7.09375 11 -2 21.59375 -2 
C 31.90625 -2 41.703125 6.875 41.703125 19.75 
C 41.703125 31.71875 33.90625 41 24.203125 41 
C 19.09375 41 14.796875 39.109375 11.40625 35.53125 
z
" id="CMR17-53"/>
      </defs>
      <g transform="translate(200.69701 399.78218)scale(0.12 -0.12)">
       <use transform="scale(0.996264)" xlink:href="#CMR17-53"/>
       <use transform="translate(45.690477 0)scale(0.996264)" xlink:href="#CMR17-48"/>
      </g>
     </g>
    </g>
    <g id="xtick_3">
     <g id="line2d_3">
      <g>
       <use style="stroke:#000000;stroke-width:0.8;" x="332.1" xlink:href="#md9bf07495e" y="384.48"/>
      </g>
     </g>
     <g id="text_3">
      <!-- $100$ -->
      <defs>
       <path d="M 26.59375 63.40625 
C 26.59375 65.5 26.5 65.5 25.09375 65.5 
C 21.203125 61.1875 15.296875 59.796875 9.703125 59.796875 
C 9.40625 59.796875 8.90625 59.796875 8.796875 59.5 
C 8.703125 59.296875 8.703125 59.09375 8.703125 57 
C 11.796875 57 17 57.59375 21 59.984375 
L 21 7.203125 
C 21 3.6875 20.796875 2.5 12.203125 2.5 
L 9.203125 2.5 
L 9.203125 0 
C 14 0 19 0 23.796875 0 
C 28.59375 0 33.59375 0 38.40625 0 
L 38.40625 2.5 
L 35.40625 2.5 
C 26.796875 2.5 26.59375 3.59375 26.59375 7.15625 
z
" id="CMR17-49"/>
      </defs>
      <g transform="translate(323.320515 399.78218)scale(0.12 -0.12)">
       <use transform="scale(0.996264)" xlink:href="#CMR17-49"/>
       <use transform="translate(45.690477 0)scale(0.996264)" xlink:href="#CMR17-48"/>
       <use transform="translate(91.380954 0)scale(0.996264)" xlink:href="#CMR17-48"/>
      </g>
     </g>
    </g>
    <g id="xtick_4">
     <g id="line2d_4">
      <g>
       <use style="stroke:#000000;stroke-width:0.8;" x="457.65" xlink:href="#md9bf07495e" y="384.48"/>
      </g>
     </g>
     <g id="text_4">
      <!-- $150$ -->
      <g transform="translate(448.870515 399.78218)scale(0.12 -0.12)">
       <use transform="scale(0.996264)" xlink:href="#CMR17-49"/>
       <use transform="translate(45.690477 0)scale(0.996264)" xlink:href="#CMR17-53"/>
       <use transform="translate(91.380954 0)scale(0.996264)" xlink:href="#CMR17-48"/>
      </g>
     </g>
    </g>
    <g id="xtick_5">
     <g id="line2d_5">
      <g>
       <use style="stroke:#000000;stroke-width:0.8;" x="583.2" xlink:href="#md9bf07495e" y="384.48"/>
      </g>
     </g>
     <g id="text_5">
      <!-- $200$ -->
      <defs>
       <path d="M 41.703125 15.453125 
L 39.90625 15.453125 
C 38.90625 8.375 38.09375 7.171875 37.703125 6.5625 
C 37.203125 5.765625 30 5.765625 28.59375 5.765625 
L 9.40625 5.765625 
C 13 9.671875 20 16.75 28.5 24.953125 
C 34.59375 30.734375 41.703125 37.53125 41.703125 47.421875 
C 41.703125 59.21875 32.296875 66 21.796875 66 
C 10.796875 66 4.09375 56.3125 4.09375 47.34375 
C 4.09375 43.4375 7 42.9375 8.203125 42.9375 
C 9.203125 42.9375 12.203125 43.546875 12.203125 47.03125 
C 12.203125 50.109375 9.59375 51 8.203125 51 
C 7.59375 51 7 50.90625 6.59375 50.703125 
C 8.5 59.21875 14.296875 63.40625 20.40625 63.40625 
C 29.09375 63.40625 34.796875 56.515625 34.796875 47.421875 
C 34.796875 38.734375 29.703125 31.25 24 24.75 
L 4.09375 2.28125 
L 4.09375 0 
L 39.296875 0 
z
" id="CMR17-50"/>
      </defs>
      <g transform="translate(574.420515 399.78218)scale(0.12 -0.12)">
       <use transform="scale(0.996264)" xlink:href="#CMR17-50"/>
       <use transform="translate(45.690477 0)scale(0.996264)" xlink:href="#CMR17-48"/>
       <use transform="translate(91.380954 0)scale(0.996264)" xlink:href="#CMR17-48"/>
      </g>
     </g>
    </g>
    <g id="text_6">
     <!-- time -->
     <defs>
      <path d="M 16.703125 37 
L 29.703125 37 
L 29.703125 42.765625 
L 16.703125 42.765625 
L 16.703125 55 
L 9.59375 55 
L 9.59375 42.765625 
L 1.703125 42.765625 
L 1.703125 37 
L 9.40625 37 
L 9.40625 11.703125 
C 9.40625 6 10.703125 -1 17.296875 -1 
C 22.296875 -1 26.90625 0.390625 31.296875 2.6875 
L 29.703125 8.5625 
C 27.296875 6.46875 24.40625 5.265625 21.296875 5.265625 
C 16.90625 5.265625 16.703125 10.875 16.703125 13.375 
z
" id="CMSS17-116"/>
      <path d="M 15.296875 65.359375 
L 6.90625 65.359375 
L 6.90625 57 
L 15.296875 57 
z
M 14.796875 42.796875 
L 7.40625 42.796875 
L 7.40625 0 
L 14.796875 0 
z
" id="CMSS17-105"/>
      <path d="M 67 29.328125 
C 67 36.0625 65.296875 44 54.09375 44 
C 46.59375 44 42.09375 39.3125 40.09375 36.421875 
C 38.296875 41.71875 34.09375 44 28.09375 44 
C 21.296875 44 17 40.125 14.703125 37.328125 
L 14.703125 43.09375 
L 7.40625 43.09375 
L 7.40625 0 
L 15 0 
L 15 24.359375 
C 15 30.296875 17.203125 37.9375 24.296875 37.9375 
C 33.40625 37.9375 33.40625 31.5 33.40625 28.578125 
L 33.40625 0 
L 41 0 
L 41 24.359375 
C 41 30.296875 43.203125 37.9375 50.296875 37.9375 
C 59.40625 37.9375 59.40625 31.5 59.40625 28.578125 
L 59.40625 0 
L 67 0 
z
" id="CMSS17-109"/>
      <path d="M 39.09375 21.515625 
C 39.09375 24.84375 38.90625 31.296875 35.703125 36.640625 
C 32.203125 42.390625 26.5 44 22.203125 44 
C 11.796875 44 3 34.1875 3 21.484375 
C 3 9.09375 12.09375 -1 23.59375 -1 
C 28.09375 -1 33.59375 0.296875 38.59375 3.875 
C 38.59375 4.28125 38.40625 6.46875 38.296875 6.5625 
C 38.296875 6.765625 38 9.84375 38 10.25 
C 33.203125 6.359375 27.703125 5.078125 23.703125 5.078125 
C 17.296875 5.078125 10.40625 10.421875 10.09375 21.515625 
z
M 10.90625 27 
C 12.203125 32.5625 16.59375 37.828125 22.203125 37.828125 
C 23.703125 37.828125 30.703125 37.828125 32.5 27 
z
" id="CMSS17-101"/>
     </defs>
     <g transform="translate(317.806539 417.176364)scale(0.16 -0.16)">
      <use transform="scale(0.996264)" xlink:href="#CMSS17-116"/>
      <use transform="translate(33.831567 0)scale(0.996264)" xlink:href="#CMSS17-105"/>
      <use transform="translate(56.01229 0)scale(0.996264)" xlink:href="#CMSS17-109"/>
      <use transform="translate(130.241544 0)scale(0.996264)" xlink:href="#CMSS17-101"/>
     </g>
    </g>
   </g>
   <g id="matplotlib.axis_2">
    <g id="ytick_1">
     <g id="line2d_6">
      <defs>
       <path d="M 0 0 
L -3.5 0 
" id="m183130405b" style="stroke:#000000;stroke-width:0.8;"/>
      </defs>
      <g>
       <use style="stroke:#000000;stroke-width:0.8;" x="81" xlink:href="#m183130405b" y="376.560614"/>
      </g>
     </g>
     <g id="text_7">
      <!-- $-0.00025$ -->
      <defs>
       <path d="M 65.90625 23 
C 67.59375 23 69.40625 23 69.40625 25 
C 69.40625 27 67.59375 27 65.90625 27 
L 11.796875 27 
C 10.09375 27 8.296875 27 8.296875 25 
C 8.296875 23 10.09375 23 11.796875 23 
z
" id="CMSY10-0"/>
       <path d="M 18.40625 4.796875 
C 18.40625 7.6875 16 9.671875 13.59375 9.671875 
C 10.703125 9.671875 8.703125 7.28125 8.703125 4.890625 
C 8.703125 2 11.09375 0 13.5 0 
C 16.40625 0 18.40625 2.390625 18.40625 4.796875 
z
" id="CMMI12-58"/>
      </defs>
      <g transform="translate(26.331908 380.711704)scale(0.12 -0.12)">
       <use transform="scale(0.996264)" xlink:href="#CMSY10-0"/>
       <use transform="translate(77.487468 0)scale(0.996264)" xlink:href="#CMR17-48"/>
       <use transform="translate(123.177945 0)scale(0.996264)" xlink:href="#CMMI12-58"/>
       <use transform="translate(150.275122 0)scale(0.996264)" xlink:href="#CMR17-48"/>
       <use transform="translate(195.965599 0)scale(0.996264)" xlink:href="#CMR17-48"/>
       <use transform="translate(241.656076 0)scale(0.996264)" xlink:href="#CMR17-48"/>
       <use transform="translate(287.346553 0)scale(0.996264)" xlink:href="#CMR17-50"/>
       <use transform="translate(333.03703 0)scale(0.996264)" xlink:href="#CMR17-53"/>
      </g>
     </g>
    </g>
    <g id="ytick_2">
     <g id="line2d_7">
      <g>
       <use style="stroke:#000000;stroke-width:0.8;" x="81" xlink:href="#m183130405b" y="336.96"/>
      </g>
     </g>
     <g id="text_8">
      <!-- $0.00000$ -->
      <g transform="translate(35.630397 341.11109)scale(0.12 -0.12)">
       <use transform="scale(0.996264)" xlink:href="#CMR17-48"/>
       <use transform="translate(45.690477 0)scale(0.996264)" xlink:href="#CMMI12-58"/>
       <use transform="translate(72.787654 0)scale(0.996264)" xlink:href="#CMR17-48"/>
       <use transform="translate(118.478131 0)scale(0.996264)" xlink:href="#CMR17-48"/>
       <use transform="translate(164.168608 0)scale(0.996264)" xlink:href="#CMR17-48"/>
       <use transform="translate(209.859086 0)scale(0.996264)" xlink:href="#CMR17-48"/>
       <use transform="translate(255.549563 0)scale(0.996264)" xlink:href="#CMR17-48"/>
      </g>
     </g>
    </g>
    <g id="ytick_3">
     <g id="line2d_8">
      <g>
       <use style="stroke:#000000;stroke-width:0.8;" x="81" xlink:href="#m183130405b" y="297.359386"/>
      </g>
     </g>
     <g id="text_9">
      <!-- $0.00025$ -->
      <g transform="translate(35.630397 301.510476)scale(0.12 -0.12)">
       <use transform="scale(0.996264)" xlink:href="#CMR17-48"/>
       <use transform="translate(45.690477 0)scale(0.996264)" xlink:href="#CMMI12-58"/>
       <use transform="translate(72.787654 0)scale(0.996264)" xlink:href="#CMR17-48"/>
       <use transform="translate(118.478131 0)scale(0.996264)" xlink:href="#CMR17-48"/>
       <use transform="translate(164.168608 0)scale(0.996264)" xlink:href="#CMR17-48"/>
       <use transform="translate(209.859086 0)scale(0.996264)" xlink:href="#CMR17-50"/>
       <use transform="translate(255.549563 0)scale(0.996264)" xlink:href="#CMR17-53"/>
      </g>
     </g>
    </g>
    <g id="ytick_4">
     <g id="line2d_9">
      <g>
       <use style="stroke:#000000;stroke-width:0.8;" x="81" xlink:href="#m183130405b" y="257.758772"/>
      </g>
     </g>
     <g id="text_10">
      <!-- $0.00050$ -->
      <g transform="translate(35.630397 261.909862)scale(0.12 -0.12)">
       <use transform="scale(0.996264)" xlink:href="#CMR17-48"/>
       <use transform="translate(45.690477 0)scale(0.996264)" xlink:href="#CMMI12-58"/>
       <use transform="translate(72.787654 0)scale(0.996264)" xlink:href="#CMR17-48"/>
       <use transform="translate(118.478131 0)scale(0.996264)" xlink:href="#CMR17-48"/>
       <use transform="translate(164.168608 0)scale(0.996264)" xlink:href="#CMR17-48"/>
       <use transform="translate(209.859086 0)scale(0.996264)" xlink:href="#CMR17-53"/>
       <use transform="translate(255.549563 0)scale(0.996264)" xlink:href="#CMR17-48"/>
      </g>
     </g>
    </g>
    <g id="ytick_5">
     <g id="line2d_10">
      <g>
       <use style="stroke:#000000;stroke-width:0.8;" x="81" xlink:href="#m183130405b" y="218.158159"/>
      </g>
     </g>
     <g id="text_11">
      <!-- $0.00075$ -->
      <defs>
       <path d="M 45.09375 61.578125 
L 45.09375 63.765625 
L 21.59375 63.765625 
C 9.90625 63.765625 9.703125 65.078125 9.296875 67 
L 7.5 67 
L 4.59375 48.34375 
L 6.40625 48.34375 
C 6.703125 50.234375 7.40625 55.3125 8.59375 57.203125 
C 9.203125 58 16.59375 58 18.296875 58 
L 40.296875 58 
L 29.203125 41.578125 
C 21.796875 30.53125 16.703125 15.609375 16.703125 2.578125 
C 16.703125 1.390625 16.703125 -2 20.296875 -2 
C 23.90625 -2 23.90625 1.390625 23.90625 2.671875 
L 23.90625 7.265625 
C 23.90625 23.5625 26.703125 34.3125 31.296875 41.1875 
z
" id="CMR17-55"/>
      </defs>
      <g transform="translate(35.630397 222.309249)scale(0.12 -0.12)">
       <use transform="scale(0.996264)" xlink:href="#CMR17-48"/>
       <use transform="translate(45.690477 0)scale(0.996264)" xlink:href="#CMMI12-58"/>
       <use transform="translate(72.787654 0)scale(0.996264)" xlink:href="#CMR17-48"/>
       <use transform="translate(118.478131 0)scale(0.996264)" xlink:href="#CMR17-48"/>
       <use transform="translate(164.168608 0)scale(0.996264)" xlink:href="#CMR17-48"/>
       <use transform="translate(209.859086 0)scale(0.996264)" xlink:href="#CMR17-55"/>
       <use transform="translate(255.549563 0)scale(0.996264)" xlink:href="#CMR17-53"/>
      </g>
     </g>
    </g>
    <g id="ytick_6">
     <g id="line2d_11">
      <g>
       <use style="stroke:#000000;stroke-width:0.8;" x="81" xlink:href="#m183130405b" y="178.557545"/>
      </g>
     </g>
     <g id="text_12">
      <!-- $0.00100$ -->
      <g transform="translate(35.630397 182.708635)scale(0.12 -0.12)">
       <use transform="scale(0.996264)" xlink:href="#CMR17-48"/>
       <use transform="translate(45.690477 0)scale(0.996264)" xlink:href="#CMMI12-58"/>
       <use transform="translate(72.787654 0)scale(0.996264)" xlink:href="#CMR17-48"/>
       <use transform="translate(118.478131 0)scale(0.996264)" xlink:href="#CMR17-48"/>
       <use transform="translate(164.168608 0)scale(0.996264)" xlink:href="#CMR17-49"/>
       <use transform="translate(209.859086 0)scale(0.996264)" xlink:href="#CMR17-48"/>
       <use transform="translate(255.549563 0)scale(0.996264)" xlink:href="#CMR17-48"/>
      </g>
     </g>
    </g>
    <g id="ytick_7">
     <g id="line2d_12">
      <g>
       <use style="stroke:#000000;stroke-width:0.8;" x="81" xlink:href="#m183130405b" y="138.956931"/>
      </g>
     </g>
     <g id="text_13">
      <!-- $0.00125$ -->
      <g transform="translate(35.630397 143.108021)scale(0.12 -0.12)">
       <use transform="scale(0.996264)" xlink:href="#CMR17-48"/>
       <use transform="translate(45.690477 0)scale(0.996264)" xlink:href="#CMMI12-58"/>
       <use transform="translate(72.787654 0)scale(0.996264)" xlink:href="#CMR17-48"/>
       <use transform="translate(118.478131 0)scale(0.996264)" xlink:href="#CMR17-48"/>
       <use transform="translate(164.168608 0)scale(0.996264)" xlink:href="#CMR17-49"/>
       <use transform="translate(209.859086 0)scale(0.996264)" xlink:href="#CMR17-50"/>
       <use transform="translate(255.549563 0)scale(0.996264)" xlink:href="#CMR17-53"/>
      </g>
     </g>
    </g>
    <g id="ytick_8">
     <g id="line2d_13">
      <g>
       <use style="stroke:#000000;stroke-width:0.8;" x="81" xlink:href="#m183130405b" y="99.356317"/>
      </g>
     </g>
     <g id="text_14">
      <!-- $0.00150$ -->
      <g transform="translate(35.630397 103.507407)scale(0.12 -0.12)">
       <use transform="scale(0.996264)" xlink:href="#CMR17-48"/>
       <use transform="translate(45.690477 0)scale(0.996264)" xlink:href="#CMMI12-58"/>
       <use transform="translate(72.787654 0)scale(0.996264)" xlink:href="#CMR17-48"/>
       <use transform="translate(118.478131 0)scale(0.996264)" xlink:href="#CMR17-48"/>
       <use transform="translate(164.168608 0)scale(0.996264)" xlink:href="#CMR17-49"/>
       <use transform="translate(209.859086 0)scale(0.996264)" xlink:href="#CMR17-53"/>
       <use transform="translate(255.549563 0)scale(0.996264)" xlink:href="#CMR17-48"/>
      </g>
     </g>
    </g>
    <g id="ytick_9">
     <g id="line2d_14">
      <g>
       <use style="stroke:#000000;stroke-width:0.8;" x="81" xlink:href="#m183130405b" y="59.755704"/>
      </g>
     </g>
     <g id="text_15">
      <!-- $0.00175$ -->
      <g transform="translate(35.630397 63.906794)scale(0.12 -0.12)">
       <use transform="scale(0.996264)" xlink:href="#CMR17-48"/>
       <use transform="translate(45.690477 0)scale(0.996264)" xlink:href="#CMMI12-58"/>
       <use transform="translate(72.787654 0)scale(0.996264)" xlink:href="#CMR17-48"/>
       <use transform="translate(118.478131 0)scale(0.996264)" xlink:href="#CMR17-48"/>
       <use transform="translate(164.168608 0)scale(0.996264)" xlink:href="#CMR17-49"/>
       <use transform="translate(209.859086 0)scale(0.996264)" xlink:href="#CMR17-55"/>
       <use transform="translate(255.549563 0)scale(0.996264)" xlink:href="#CMR17-53"/>
      </g>
     </g>
    </g>
    <g id="text_16">
     <!-- Heat and light source flux -->
     <defs>
      <path d="M 57.40625 69 
L 49 69 
L 49 39.078125 
L 17.203125 39.078125 
L 17.203125 69 
L 8.796875 69 
L 8.796875 0 
L 17.203125 0 
L 17.203125 33 
L 49 33 
L 49 0 
L 57.40625 0 
z
" id="CMSS17-72"/>
      <path d="M 37.59375 27.984375 
C 37.59375 37.375 30.90625 43.875 21.90625 43.875 
C 17.5 43.875 12.703125 43.078125 7.203125 39.890625 
L 7.796875 33.359375 
C 10.296875 35.125 14.59375 38 21.796875 38 
C 26.90625 38 30 34.0625 30 27.84375 
L 30 24 
C 14 24 4 19.34375 4 11.34375 
C 4 7.203125 6.5 -1 14.796875 -1 
C 16.296875 -1 24.40625 -1 30.203125 3.390625 
L 30.203125 -0.296875 
L 37.59375 -0.296875 
z
M 30 12.75 
C 30 10.953125 30 8.5625 27 6.78125 
C 24.40625 5.078125 21.09375 5.078125 19.703125 5.078125 
C 14.703125 5.078125 11.296875 7.984375 11.296875 11.625 
C 11.296875 18.921875 26.90625 18.921875 30 18.921875 
z
" id="CMSS17-97"/>
      <path d="M 40.90625 29.328125 
C 40.90625 35.671875 39.40625 44 28.09375 44 
C 21.703125 44 17.5 40.71875 14.703125 37.328125 
L 14.703125 43.09375 
L 7.40625 43.09375 
L 7.40625 0 
L 15 0 
L 15 24.359375 
C 15 30.6875 17.40625 37.9375 24.203125 37.9375 
C 33 37.9375 33.296875 32 33.296875 28.578125 
L 33.296875 0 
L 40.90625 0 
z
" id="CMSS17-110"/>
      <path d="M 40.796875 69 
L 33.40625 69 
L 33.40625 38.09375 
C 30.296875 40.671875 25.203125 43.0625 19.59375 43.0625 
C 10.5 43.0625 3.296875 33.296875 3.296875 21.046875 
C 3.296875 8.78125 10.40625 -1 19.296875 -1 
C 26.203125 -1 30.796875 2.6875 33.203125 4.78125 
L 33.203125 -0.203125 
L 40.796875 -0.203125 
z
M 33.203125 13.0625 
C 33.203125 11.671875 33.203125 10.203125 30.09375 7.53125 
C 28.09375 5.859375 25.703125 5.078125 23.40625 5.078125 
C 18 5.078125 10.90625 9 10.90625 20.9375 
C 10.90625 33.34375 18.90625 37 24.40625 37 
C 28.09375 37 31.09375 35.21875 33.203125 32.265625 
z
" id="CMSS17-100"/>
      <path d="M 14.796875 69 
L 7.40625 69 
L 7.40625 0 
L 14.796875 0 
z
" id="CMSS17-108"/>
      <path d="M 44.5 43.875 
C 38.796875 43.875 33.90625 42.78125 29.90625 40.890625 
C 26.59375 43.390625 23.203125 43.875 20.90625 43.875 
C 12.203125 43.875 5.59375 36.703125 5.59375 28.34375 
C 5.59375 22.9375 8.59375 18.859375 8.796875 18.671875 
C 7 16.171875 6 13.484375 6 10.5 
C 6 7 7.40625 4.515625 8.5 3.125 
C 3.296875 -0.046875 2.59375 -4.90625 2.59375 -6.796875 
C 2.59375 -14.03125 11.703125 -20 23.40625 -20 
C 35.203125 -20 44.296875 -14.03125 44.296875 -6.6875 
C 44.296875 7 29 7 24.796875 7 
L 16.703125 7 
C 15.203125 7 11.203125 7 11.203125 12.359375 
C 11.203125 14.390625 12.09375 15.6875 12.203125 15.78125 
C 13.703125 14.6875 16.796875 13 20.90625 13 
C 29.203125 13 36.09375 19.96875 36.09375 28.546875 
C 36.09375 33.3125 33.90625 36.796875 33 38 
L 33.296875 38 
C 33.59375 38 37.796875 38 39.296875 38 
C 42.5 38 42.796875 37.953125 45.59375 37.796875 
z
M 20.90625 18.46875 
C 17.5 18.46875 12.703125 20.546875 12.703125 28.484375 
C 12.703125 37.109375 18.203125 38.5 20.796875 38.5 
C 24.203125 38.5 29 36.421875 29 28.484375 
C 29 19.859375 23.5 18.46875 20.90625 18.46875 
z
M 24.703125 -0.15625 
C 27.09375 -0.15625 37.203125 -0.15625 37.203125 -6.90625 
C 37.203125 -11.15625 31 -14.515625 23.5 -14.515625 
C 15.90625 -14.515625 9.703125 -11.25 9.703125 -6.796875 
C 9.703125 -6.296875 9.703125 -0.15625 16.59375 -0.15625 
z
" id="CMSS17-103"/>
      <path d="M 40.90625 29.546875 
C 40.90625 35.8125 39.40625 44.0625 28.09375 44.0625 
C 21.796875 44.0625 17.703125 40.984375 14.796875 37.609375 
L 14.796875 69.5 
L 7.40625 69.5 
L 7.40625 0.5 
L 15 0.5 
L 15 24.578125 
C 15 30.828125 17.40625 38 24.203125 38 
C 33 38 33.296875 32.125 33.296875 28.734375 
L 33.296875 0.5 
L 40.90625 0.5 
z
" id="CMSS17-104"/>
      <path d="M 32.203125 41.046875 
C 26.296875 43.859375 21.703125 43.859375 18.703125 43.859375 
C 11.59375 43.859375 3.09375 41.375 3.09375 31.296875 
C 3.09375 21.234375 14.09375 19.03125 17.09375 18.421875 
C 21.703125 17.53125 26.796875 16.53125 26.796875 11.5625 
C 26.796875 5.265625 19.59375 5.265625 18.296875 5.265625 
C 14.296875 5.265625 8.796875 6.359375 3.796875 9.96875 
L 2.59375 3.28125 
C 8.296875 0 13.796875 -1 18.40625 -1 
C 30.703125 -1 33.796875 6.5 33.796875 12.203125 
C 33.796875 17.09375 31 20.390625 29.09375 21.890625 
C 25.796875 24.5 24.59375 24.796875 16.40625 26.5 
C 15 26.703125 10.09375 27.796875 10.09375 32.28125 
C 10.09375 38 16.40625 38 17.796875 38 
C 24.296875 38 28.296875 35.984375 31 34.5 
z
" id="CMSS17-115"/>
      <path d="M 44.203125 21.1875 
C 44.203125 34 34.703125 44 23.5 44 
C 12 44 2.703125 33.703125 2.703125 21.1875 
C 2.703125 8.5 12.296875 -1 23.40625 -1 
C 34.796875 -1 44.203125 8.796875 44.203125 21.1875 
z
M 23.5 5.265625 
C 16.40625 5.265625 10.296875 11.078125 10.296875 22 
C 10.296875 33.609375 17.40625 37.921875 23.40625 37.921875 
C 29.90625 37.921875 36.59375 33.21875 36.59375 22 
C 36.59375 10.671875 30.09375 5.265625 23.5 5.265625 
z
" id="CMSS17-111"/>
      <path d="M 40.90625 42.796875 
L 33.296875 42.796875 
L 33.296875 15.1875 
C 33.296875 7.78125 27.90625 4.78125 22.203125 4.78125 
C 15.59375 4.78125 15 6.984375 15 11.078125 
L 15 42.796875 
L 7.40625 42.796875 
L 7.40625 10.59375 
C 7.40625 2.796875 10.09375 -1 17 -1 
C 20.40625 -1 28.09375 -0.203125 33.5 4.78125 
L 33.5 0 
L 40.90625 0 
z
" id="CMSS17-117"/>
      <path d="M 14.90625 21.296875 
C 14.90625 30.703125 21.796875 37 30.59375 37 
L 30.59375 43.578125 
C 24.203125 43.578125 18.203125 40.390625 14.59375 35.203125 
L 14.59375 43.09375 
L 7.5 43.09375 
L 7.5 0 
L 14.90625 0 
z
" id="CMSS17-114"/>
      <path d="M 38.5 39.703125 
C 38.5 40.390625 33.90625 42.40625 32.703125 42.796875 
C 29.40625 44 25.203125 44 24.09375 44 
C 11.09375 44 3.296875 32.703125 3.296875 21.296875 
C 3.296875 9.296875 12 -1 23.703125 -1 
C 30.40625 -1 35.203125 1.1875 39.09375 3.78125 
L 38.5 10.375 
C 34.203125 7.078125 29.203125 5.265625 23.796875 5.265625 
C 16 5.265625 10.90625 12.09375 10.90625 21.390625 
C 10.90625 28.609375 14.203125 37.71875 24.203125 37.71875 
C 29.703125 37.71875 32.796875 36.609375 37.40625 33.515625 
z
" id="CMSS17-99"/>
      <path d="M 16.796875 37 
L 27.703125 37 
L 27.703125 42.765625 
L 16.59375 42.765625 
L 16.59375 55.90625 
C 16.59375 61.234375 19 63.9375 22.203125 63.9375 
C 24.90625 63.9375 27.40625 62.828125 27.703125 62.640625 
L 27.703125 69.203125 
C 26.90625 69.40625 24.59375 70 22.203125 70 
C 14.703125 70 9.40625 62.390625 9.40625 52.6875 
L 9.40625 42.765625 
L 2.5 42.765625 
L 2.5 37 
L 9.40625 37 
L 9.40625 0 
L 16.796875 0 
z
M 42.703125 69.203125 
L 35.296875 69.203125 
L 35.296875 0 
L 42.703125 0 
z
" id="CMSS17-13"/>
      <path d="M 24.796875 22.09375 
L 41.5 42.796875 
L 32.796875 42.796875 
L 21.296875 27.765625 
L 9.40625 42.796875 
L 0.5 42.796875 
L 17.796875 22.09375 
L 0 0 
L 8.796875 0 
L 21.296875 17.515625 
L 34.296875 0 
L 43.09375 0 
z
" id="CMSS17-120"/>
     </defs>
     <g transform="translate(19.232432 302.424567)rotate(-90)scale(0.16 -0.16)">
      <use transform="scale(0.996264)" xlink:href="#CMSS17-72"/>
      <use transform="translate(66.061519 0)scale(0.996264)" xlink:href="#CMSS17-101"/>
      <use transform="translate(107.700341 0)scale(0.996264)" xlink:href="#CMSS17-97"/>
      <use transform="translate(152.622262 0)scale(0.996264)" xlink:href="#CMSS17-116"/>
      <use transform="translate(217.682941 0)scale(0.996264)" xlink:href="#CMSS17-97"/>
      <use transform="translate(262.604862 0)scale(0.996264)" xlink:href="#CMSS17-110"/>
      <use transform="translate(310.809805 0)scale(0.996264)" xlink:href="#CMSS17-100"/>
      <use transform="translate(390.243861 0)scale(0.996264)" xlink:href="#CMSS17-108"/>
      <use transform="translate(412.424584 0)scale(0.996264)" xlink:href="#CMSS17-105"/>
      <use transform="translate(434.605307 0)scale(0.996264)" xlink:href="#CMSS17-103"/>
      <use transform="translate(481.448931 0)scale(0.996264)" xlink:href="#CMSS17-104"/>
      <use transform="translate(529.653874 0)scale(0.996264)" xlink:href="#CMSS17-116"/>
      <use transform="translate(594.714553 0)scale(0.996264)" xlink:href="#CMSS17-115"/>
      <use transform="translate(630.628095 0)scale(0.996264)" xlink:href="#CMSS17-111"/>
      <use transform="translate(677.471719 0)scale(0.996264)" xlink:href="#CMSS17-117"/>
      <use transform="translate(725.676662 0)scale(0.996264)" xlink:href="#CMSS17-114"/>
      <use transform="translate(757.586434 0)scale(0.996264)" xlink:href="#CMSS17-99"/>
      <use transform="translate(799.225256 0)scale(0.996264)" xlink:href="#CMSS17-101"/>
      <use transform="translate(872.093191 0)scale(0.996264)" xlink:href="#CMSS17-13"/>
      <use transform="translate(922.219928 0)scale(0.996264)" xlink:href="#CMSS17-117"/>
      <use transform="translate(970.424872 0)scale(0.996264)" xlink:href="#CMSS17-120"/>
     </g>
    </g>
   </g>
   <g id="line2d_15">
    <path clip-path="url(#p89ccd8fbef)" d="M 81 336.96 
L 82.258647 336.901084 
L 83.517293 336.724396 
L 84.77594 336.430109 
L 87.293233 335.490027 
L 89.810526 334.084566 
L 92.32782 332.219301 
L 94.845113 329.90163 
L 97.362406 327.140747 
L 99.879699 323.947601 
L 102.396992 320.334858 
L 104.914286 316.316846 
L 107.431579 311.909504 
L 109.948872 307.130312 
L 112.466165 301.998226 
L 116.242105 293.683311 
L 120.018045 284.694667 
L 123.793985 275.112479 
L 128.828571 261.561345 
L 133.863158 247.322287 
L 141.415038 225.169627 
L 154.001504 188.088161 
L 159.03609 173.885582 
L 164.070677 160.384707 
L 167.846617 150.848784 
L 171.622556 141.9133 
L 175.398496 133.657965 
L 177.915789 128.568905 
L 180.433083 123.835187 
L 182.950376 119.475586 
L 185.467669 115.507394 
L 187.984962 111.946351 
L 190.502256 108.80658 
L 193.019549 106.100535 
L 195.536842 103.838949 
L 198.054135 102.030792 
L 200.571429 100.683236 
L 203.088722 99.801626 
L 204.347368 99.536716 
L 205.606015 99.389459 
L 206.864662 99.36 
L 208.123308 99.448369 
L 209.381955 99.654478 
L 210.640602 99.978123 
L 213.157895 100.97662 
L 215.675188 102.439899 
L 218.192481 104.362156 
L 220.709774 106.735767 
L 223.227068 109.551318 
L 225.744361 112.797641 
L 228.261654 116.46186 
L 230.778947 120.529441 
L 233.296241 124.984252 
L 235.813534 129.808622 
L 238.330827 134.983416 
L 242.106767 143.357396 
L 245.882707 152.398642 
L 249.658647 162.026502 
L 254.693233 175.627054 
L 259.72782 189.901708 
L 267.279699 212.080674 
L 279.866165 249.132161 
L 284.900752 263.297382 
L 289.935338 276.747161 
L 293.711278 286.236228 
L 297.487218 295.117998 
L 301.263158 303.313241 
L 303.780451 308.358959 
L 306.297744 313.046909 
L 308.815038 317.358498 
L 311.332331 321.276625 
L 313.849624 324.785748 
L 316.366917 327.87195 
L 318.884211 330.522989 
L 321.401504 332.72835 
L 323.918797 334.479287 
L 326.43609 335.768854 
L 328.953383 336.591936 
L 330.21203 336.827453 
L 331.470677 336.94527 
L 332.729323 336.94527 
L 333.98797 336.827453 
L 335.246617 336.591936 
L 336.505263 336.238953 
L 339.022556 335.182104 
L 341.53985 333.661098 
L 344.057143 331.681968 
L 346.574436 329.252563 
L 349.091729 326.382519 
L 351.609023 323.08322 
L 354.126316 319.367753 
L 356.643609 315.250854 
L 359.160902 310.748851 
L 361.678195 305.879602 
L 365.454135 297.929769 
L 369.230075 289.268326 
L 373.006015 279.972539 
L 376.781955 270.125331 
L 381.816541 256.290394 
L 388.109774 238.173471 
L 409.506767 175.627054 
L 414.541353 162.026502 
L 418.317293 152.398642 
L 422.093233 143.357396 
L 425.869173 134.983416 
L 428.386466 129.808622 
L 430.903759 124.984252 
L 433.421053 120.529441 
L 435.938346 116.46186 
L 438.455639 112.797641 
L 440.972932 109.551318 
L 443.490226 106.735767 
L 446.007519 104.362156 
L 448.524812 102.439899 
L 451.042105 100.97662 
L 453.559398 99.978123 
L 454.818045 99.654478 
L 456.076692 99.448369 
L 457.335338 99.36 
L 458.593985 99.389459 
L 459.852632 99.536716 
L 461.111278 99.801626 
L 462.369925 100.183926 
L 464.887218 101.299062 
L 467.404511 102.877701 
L 469.921805 104.913582 
L 472.439098 107.39863 
L 474.956391 110.322988 
L 477.473684 113.675058 
L 479.990977 117.441543 
L 482.508271 121.607506 
L 485.025564 126.156421 
L 487.542857 131.070247 
L 491.318797 139.082181 
L 495.094737 147.79952 
L 498.870677 157.144499 
L 502.646617 167.033756 
L 507.681203 180.913008 
L 513.974436 199.065493 
L 534.112782 258.057417 
L 539.147368 271.801153 
L 542.923308 281.562434 
L 546.699248 290.758112 
L 550.475188 299.306156 
L 554.251128 307.130312 
L 556.768421 311.909504 
L 559.285714 316.316846 
L 561.803008 320.334858 
L 564.320301 323.947601 
L 566.837594 327.140747 
L 569.354887 329.90163 
L 571.87218 332.219301 
L 574.389474 334.084566 
L 576.906767 335.490027 
L 579.42406 336.430109 
L 580.682707 336.724396 
L 581.941353 336.901084 
L 583.2 336.96 
L 583.2 336.96 
" style="fill:none;stroke:#ff0000;stroke-linecap:square;stroke-width:2;"/>
   </g>
   <g id="line2d_16">
    <path clip-path="url(#p89ccd8fbef)" d="M 81 178.557545 
L 83.517293 178.714615 
L 86.034586 179.185201 
L 88.55188 179.967436 
L 91.069173 181.058219 
L 93.586466 182.453223 
L 96.103759 184.146914 
L 98.621053 186.132575 
L 101.138346 188.402331 
L 103.655639 190.947177 
L 106.172932 193.757022 
L 108.690226 196.820719 
L 112.466165 201.865395 
L 116.242105 207.408671 
L 120.018045 213.4011 
L 123.793985 219.789226 
L 128.828571 228.823315 
L 133.863158 238.316021 
L 141.415038 253.08446 
L 154.001504 277.805437 
L 159.03609 287.273824 
L 164.070677 296.274407 
L 167.846617 302.631689 
L 171.622556 308.588678 
L 175.398496 314.092235 
L 179.174436 319.093264 
L 181.691729 322.125875 
L 184.209023 324.903183 
L 186.726316 327.414173 
L 189.243609 329.648886 
L 191.760902 331.598458 
L 194.278195 333.255157 
L 196.795489 334.612411 
L 199.312782 335.664837 
L 201.830075 336.408261 
L 204.347368 336.839734 
L 206.864662 336.957545 
L 209.381955 336.761226 
L 211.899248 336.251557 
L 214.416541 335.430558 
L 216.933835 334.301486 
L 219.451128 332.868819 
L 221.968421 331.13824 
L 224.485714 329.116613 
L 227.003008 326.811956 
L 229.520301 324.23341 
L 232.037594 321.391204 
L 234.554887 318.296609 
L 238.330827 313.208601 
L 242.106767 307.625948 
L 245.882707 301.59845 
L 249.658647 295.179877 
L 254.693233 286.112843 
L 260.986466 274.164631 
L 269.796992 256.823388 
L 279.866165 237.109437 
L 284.900752 227.665957 
L 289.935338 218.699438 
L 293.711278 212.373393 
L 297.487218 206.452213 
L 301.263158 200.988718 
L 305.039098 196.031644 
L 307.556391 193.030309 
L 310.073684 190.28571 
L 312.590977 187.808731 
L 315.108271 185.609199 
L 317.625564 183.695837 
L 320.142857 182.076233 
L 322.66015 180.756813 
L 325.177444 179.742809 
L 327.694737 179.038243 
L 330.21203 178.645909 
L 332.729323 178.567365 
L 335.246617 178.802921 
L 337.76391 179.351642 
L 340.281203 180.211354 
L 342.798496 181.378645 
L 345.315789 182.848886 
L 347.833083 184.616245 
L 350.350376 186.673713 
L 352.867669 189.013128 
L 355.384962 191.625213 
L 357.902256 194.499605 
L 360.419549 197.624906 
L 364.195489 202.755932 
L 367.971429 208.377615 
L 371.747368 214.439807 
L 375.523308 220.88843 
L 380.557895 229.987848 
L 386.851128 241.963495 
L 396.920301 261.810429 
L 405.730827 279.009498 
L 410.765414 288.427486 
L 415.8 297.359386 
L 419.57594 303.653801 
L 423.35188 309.538805 
L 427.12782 314.9619 
L 430.903759 319.874711 
L 433.421053 322.844584 
L 435.938346 325.556305 
L 438.455639 327.999118 
L 440.972932 330.163333 
L 443.490226 332.040367 
L 446.007519 333.622774 
L 448.524812 334.904279 
L 451.042105 335.879798 
L 453.559398 336.545463 
L 456.076692 336.898632 
L 458.593985 336.937906 
L 461.111278 336.663128 
L 463.628571 336.075388 
L 466.145865 335.177017 
L 468.663158 333.971579 
L 471.180451 332.463855 
L 473.697744 330.659825 
L 476.215038 328.566644 
L 478.732331 326.192615 
L 481.249624 323.547154 
L 483.766917 320.640754 
L 486.284211 317.484942 
L 490.06015 312.311216 
L 493.83609 306.650851 
L 497.61203 300.55434 
L 501.38797 294.076068 
L 506.422556 284.94483 
L 512.715789 272.94249 
L 522.784962 253.08446 
L 531.595489 235.907975 
L 536.630075 226.516062 
L 541.664662 217.619335 
L 545.440602 211.356941 
L 549.216541 205.508478 
L 552.992481 200.126118 
L 556.768421 195.257875 
L 559.285714 192.319647 
L 561.803008 189.640973 
L 564.320301 187.232478 
L 566.837594 185.103714 
L 569.354887 183.263125 
L 571.87218 181.718011 
L 574.389474 180.474501 
L 576.906767 179.537527 
L 579.42406 178.910806 
L 581.941353 178.596822 
L 583.2 178.557545 
L 583.2 178.557545 
" style="fill:none;stroke:#ffa500;stroke-linecap:square;stroke-width:2;"/>
   </g>
   <g id="patch_3">
    <path d="M 81 384.48 
L 81 51.84 
" style="fill:none;stroke:#000000;stroke-linecap:square;stroke-linejoin:miter;stroke-width:0.8;"/>
   </g>
   <g id="patch_4">
    <path d="M 583.2 384.48 
L 583.2 51.84 
" style="fill:none;stroke:#000000;stroke-linecap:square;stroke-linejoin:miter;stroke-width:0.8;"/>
   </g>
   <g id="patch_5">
    <path d="M 81 384.48 
L 583.2 384.48 
" style="fill:none;stroke:#000000;stroke-linecap:square;stroke-linejoin:miter;stroke-width:0.8;"/>
   </g>
   <g id="patch_6">
    <path d="M 81 51.84 
L 583.2 51.84 
" style="fill:none;stroke:#000000;stroke-linecap:square;stroke-linejoin:miter;stroke-width:0.8;"/>
   </g>
   <g id="text_17">
    <!-- Heat and Light Source Flux -->
    <defs>
     <path d="M 26.09375 6.46875 
C 24.90625 6.46875 23.703125 6.46875 22.5 6.46875 
L 17.203125 6.46875 
L 17.203125 69 
L 8.796875 69 
L 8.796875 0 
L 46.90625 0 
L 46.90625 6.46875 
z
" id="CMSS17-76"/>
     <path d="M 43.703125 65.140625 
C 39.296875 67.71875 34.5 70 26.40625 70 
C 13.5 70 5.203125 60.609375 5.203125 51.03125 
C 5.203125 47.265625 6.296875 43.015625 10.203125 38.671875 
C 14.09375 34.3125 18.5 33.140625 24.09375 31.765625 
C 26.40625 31.15625 30.296875 30.0625 31 29.78125 
C 36.59375 27.609375 39.296875 22.5625 39.296875 17.8125 
C 39.296875 11.59375 34.40625 4.96875 25.703125 4.96875 
C 22.703125 4.96875 13.90625 4.96875 5.59375 12.796875 
L 4.203125 4.96875 
C 12.40625 -1 21.296875 -2 25.796875 -2 
C 38.09375 -2 46.90625 7.625 46.90625 18.53125 
C 46.90625 22.5 45.703125 27.546875 41.5 32.203125 
C 37.40625 36.671875 33.796875 37.65625 25.59375 39.828125 
C 20.90625 41.03125 17.90625 41.828125 15.40625 44.890625 
C 13.703125 47.078125 12.796875 49.15625 12.796875 51.828125 
C 12.796875 57.390625 17.59375 63.4375 26.40625 63.4375 
C 30.796875 63.4375 36.5 62.53125 42.296875 57.1875 
z
" id="CMSS17-83"/>
     <path d="M 45.59375 31 
L 45.59375 37.078125 
L 17.203125 37.078125 
L 17.203125 62 
L 29.40625 62 
C 30.59375 62 31.796875 62 33 62 
L 49.5 62 
L 49.5 68.359375 
L 8.796875 68.359375 
L 8.796875 -0.5 
L 17.203125 -0.5 
L 17.203125 31 
z
" id="CMSS17-70"/>
    </defs>
    <g transform="translate(242.012915 45.84)scale(0.16 -0.16)">
     <use transform="scale(0.996264)" xlink:href="#CMSS17-72"/>
     <use transform="translate(66.061519 0)scale(0.996264)" xlink:href="#CMSS17-101"/>
     <use transform="translate(107.700341 0)scale(0.996264)" xlink:href="#CMSS17-97"/>
     <use transform="translate(152.622262 0)scale(0.996264)" xlink:href="#CMSS17-116"/>
     <use transform="translate(217.682941 0)scale(0.996264)" xlink:href="#CMSS17-97"/>
     <use transform="translate(262.604862 0)scale(0.996264)" xlink:href="#CMSS17-110"/>
     <use transform="translate(310.809805 0)scale(0.996264)" xlink:href="#CMSS17-100"/>
     <use transform="translate(390.243861 0)scale(0.996264)" xlink:href="#CMSS17-76"/>
     <use transform="translate(440.930966 0)scale(0.996264)" xlink:href="#CMSS17-105"/>
     <use transform="translate(463.111689 0)scale(0.996264)" xlink:href="#CMSS17-103"/>
     <use transform="translate(509.955313 0)scale(0.996264)" xlink:href="#CMSS17-104"/>
     <use transform="translate(558.160256 0)scale(0.996264)" xlink:href="#CMSS17-116"/>
     <use transform="translate(623.220935 0)scale(0.996264)" xlink:href="#CMSS17-83"/>
     <use transform="translate(675.269452 0)scale(0.996264)" xlink:href="#CMSS17-111"/>
     <use transform="translate(722.113075 0)scale(0.996264)" xlink:href="#CMSS17-117"/>
     <use transform="translate(770.318018 0)scale(0.996264)" xlink:href="#CMSS17-114"/>
     <use transform="translate(802.227791 0)scale(0.996264)" xlink:href="#CMSS17-99"/>
     <use transform="translate(843.866613 0)scale(0.996264)" xlink:href="#CMSS17-101"/>
     <use transform="translate(916.734548 0)scale(0.996264)" xlink:href="#CMSS17-70"/>
     <use transform="translate(970.024107 0)scale(0.996264)" xlink:href="#CMSS17-108"/>
     <use transform="translate(992.20483 0)scale(0.996264)" xlink:href="#CMSS17-117"/>
     <use transform="translate(1040.409773 0)scale(0.996264)" xlink:href="#CMSS17-120"/>
    </g>
   </g>
   <g id="legend_1">
    <g id="patch_7">
     <path d="M 88 87.714357 
L 138.486249 87.714357 
Q 140.486249 87.714357 140.486249 85.714357 
L 140.486249 58.84 
Q 140.486249 56.84 138.486249 56.84 
L 88 56.84 
Q 86 56.84 86 58.84 
L 86 85.714357 
Q 86 87.714357 88 87.714357 
z
" style="fill:#ffffff;opacity:0.8;stroke:#cccccc;stroke-linejoin:miter;"/>
    </g>
    <g id="line2d_17">
     <path d="M 90 64.34 
L 110 64.34 
" style="fill:none;stroke:#ff0000;stroke-linecap:square;stroke-width:2;"/>
    </g>
    <g id="line2d_18"/>
    <g id="text_18">
     <!-- heat -->
     <g transform="translate(118 67.84)scale(0.1 -0.1)">
      <use transform="scale(0.996264)" xlink:href="#CMSS17-104"/>
      <use transform="translate(48.204943 0)scale(0.996264)" xlink:href="#CMSS17-101"/>
      <use transform="translate(89.843765 0)scale(0.996264)" xlink:href="#CMSS17-97"/>
      <use transform="translate(134.765686 0)scale(0.996264)" xlink:href="#CMSS17-116"/>
     </g>
    </g>
    <g id="line2d_19">
     <path d="M 90 78.277178 
L 110 78.277178 
" style="fill:none;stroke:#ffa500;stroke-linecap:square;stroke-width:2;"/>
    </g>
    <g id="line2d_20"/>
    <g id="text_19">
     <!-- light -->
     <g transform="translate(118 81.777178)scale(0.1 -0.1)">
      <use transform="scale(0.996264)" xlink:href="#CMSS17-108"/>
      <use transform="translate(22.180723 0)scale(0.996264)" xlink:href="#CMSS17-105"/>
      <use transform="translate(44.361446 0)scale(0.996264)" xlink:href="#CMSS17-103"/>
      <use transform="translate(91.20507 0)scale(0.996264)" xlink:href="#CMSS17-104"/>
      <use transform="translate(139.410013 0)scale(0.996264)" xlink:href="#CMSS17-116"/>
     </g>
    </g>
   </g>
  </g>
 </g>
 <defs>
  <clipPath id="p89ccd8fbef">
   <rect height="332.64" width="502.2" x="81" y="51.84"/>
  </clipPath>
 </defs>
</svg>
